<svg width="7907" height="4289" viewBox="0 0 7907 4289" fill="none" xmlns="http://www.w3.org/2000/svg">
<path d="M2345.04 871.205H2595.04V1034.83H2345.04V871.205Z" fill="#5EB9D9"/>
<path d="M3109.5 1174.23C3122.2 1174.23 3132.5 1184.53 3132.5 1197.23V1939.23C3132.5 1951.93 3122.2 1962.23 3109.5 1962.23H2379.44C2366.74 1962.23 2356.44 1951.93 2356.44 1939.23V1197.23C2356.44 1184.53 2366.74 1174.23 2379.44 1174.23H3109.5Z" fill="#3A109F" stroke="#61D4FF" stroke-width="8"/>
<path d="M2360.44 1789.05H3128.5V1939.23C3128.5 1949.72 3119.99 1958.23 3109.5 1958.23H2379.44C2368.95 1958.23 2360.44 1949.72 2360.44 1939.23V1789.05Z" fill="#45D1FF"/>
<path d="M2382.63 2119.49C2380.96 2118.53 2380.96 2116.13 2382.63 2115.16L2435.42 2084.68C2437.09 2083.72 2439.17 2084.93 2439.17 2086.85L2439.17 2147.81C2439.17 2149.73 2437.09 2150.94 2435.42 2149.97L2382.63 2119.49Z" stroke="white" stroke-width="5"/>
<path d="M2590.64 2119.49C2592.3 2118.53 2592.3 2116.13 2590.64 2115.16L2537.85 2084.68C2536.18 2083.72 2534.1 2084.93 2534.1 2086.85L2534.1 2147.81C2534.1 2149.73 2536.18 2150.94 2537.85 2149.97L2590.64 2119.49Z" stroke="white" stroke-width="5"/>
<rect x="2746.33" y="2406.8" width="38.6719" height="63.0957" fill="#5CD1FF"/>
<rect x="2795.18" y="2375.59" width="38.6719" height="94.3046" fill="#5CD1FF"/>
<rect x="2844.03" y="2422.41" width="38.6719" height="47.4912" fill="#5CD1FF"/>
<rect x="3117.75" y="2371.53" width="19.2459" height="86.3476" fill="#5CD1FF"/>
<rect x="3170.54" y="2405.08" width="19.2459" height="86.3476" transform="rotate(90 3170.54 2405.08)" fill="#5CD1FF"/>
<rect x="3164.7" y="2438.43" width="19.2459" height="86.3476" transform="rotate(135 3164.7 2438.43)" fill="#5CD1FF"/>
<rect x="3151.09" y="2377.37" width="19.2459" height="86.3476" transform="rotate(45 3151.09 2377.37)" fill="#5CD1FF"/>
<circle cx="3127.37" cy="2414.7" r="32.6388" fill="#5CD1FF"/>
<circle cx="3127.37" cy="2414.7" r="19.1369" fill="#140C52"/>
<rect x="3057.16" y="2421.79" width="13.4685" height="60.4268" fill="#5CD1FF"/>
<rect x="3094.1" y="2445.27" width="13.4685" height="60.4268" transform="rotate(90 3094.1 2445.27)" fill="#5CD1FF"/>
<rect x="3090.02" y="2468.61" width="13.4685" height="60.4268" transform="rotate(135 3090.02 2468.61)" fill="#5CD1FF"/>
<rect x="3080.49" y="2425.88" width="13.4685" height="60.4268" transform="rotate(45 3080.49 2425.88)" fill="#5CD1FF"/>
<circle cx="3063.89" cy="2452.01" r="22.8409" fill="#5CD1FF"/>
<circle cx="3063.89" cy="2452.01" r="13.3922" fill="#140C52"/>
<circle cx="2560.85" cy="2391.5" r="19.9738" fill="#45D1FF"/>
<path d="M2524.64 2447.48C2524.64 2430.91 2538.07 2417.48 2554.64 2417.48H2565.36C2581.93 2417.48 2595.36 2430.91 2595.36 2447.48V2470.16H2524.64V2447.48Z" fill="#45D1FF"/>
<circle cx="2627.24" cy="2414.56" r="14.1194" fill="#45D1FF"/>
<path d="M2601.64 2457.91C2601.64 2444.11 2612.83 2432.92 2626.64 2432.92V2432.92C2640.44 2432.92 2651.63 2444.11 2651.63 2457.91V2470.16H2601.64V2457.91Z" fill="#45D1FF"/>
<path d="M2281.33 2423.09C2280.96 2420.11 2283.28 2417.48 2286.29 2417.48H2402.08C2405.1 2417.48 2407.43 2420.14 2407.03 2423.14L2400.94 2468.83C2400.61 2471.32 2398.49 2473.17 2395.98 2473.17H2291.93C2289.4 2473.17 2287.27 2471.29 2286.96 2468.78L2281.33 2423.09Z" fill="#5CD1FF"/>
<rect x="2305.89" y="2385.22" width="78.2939" height="58.5928" rx="15" stroke="#5CD1FF" stroke-width="8"/>
<rect x="2333.59" y="2428.71" width="23.1664" height="12.8918" fill="#140C52"/>
<rect x="2333.59" y="2449.04" width="23.1664" height="12.8918" fill="#140C52"/>
<rect x="2300.42" y="2428.71" width="23.1664" height="12.8918" fill="#140C52"/>
<rect x="2300.42" y="2449.04" width="23.1664" height="12.8918" fill="#140C52"/>
<rect x="2366.75" y="2428.71" width="23.1664" height="12.8918" fill="#140C52"/>
<rect x="2366.75" y="2449.04" width="23.1664" height="12.8918" fill="#140C52"/>
<rect x="2746.33" y="2604.67" width="38.6719" height="63.0957" fill="white"/>
<rect x="2795.18" y="2573.46" width="38.6719" height="94.3046" fill="white"/>
<rect x="2844.03" y="2620.27" width="38.6719" height="47.4912" fill="white"/>
<rect x="3117.75" y="2569.39" width="19.2459" height="86.3476" fill="white"/>
<rect x="3170.54" y="2602.94" width="19.2459" height="86.3476" transform="rotate(90 3170.54 2602.94)" fill="white"/>
<rect x="3164.7" y="2636.29" width="19.2459" height="86.3476" transform="rotate(135 3164.7 2636.29)" fill="white"/>
<rect x="3151.09" y="2575.23" width="19.2459" height="86.3476" transform="rotate(45 3151.09 2575.23)" fill="white"/>
<circle cx="3127.37" cy="2612.57" r="32.6388" fill="white"/>
<circle cx="3127.37" cy="2612.57" r="19.1369" fill="#140C52"/>
<rect x="3057.16" y="2619.66" width="13.4685" height="60.4268" fill="white"/>
<rect x="3094.1" y="2643.14" width="13.4685" height="60.4268" transform="rotate(90 3094.1 2643.14)" fill="white"/>
<rect x="3090.02" y="2666.47" width="13.4685" height="60.4268" transform="rotate(135 3090.02 2666.47)" fill="white"/>
<rect x="3080.49" y="2623.75" width="13.4685" height="60.4268" transform="rotate(45 3080.49 2623.75)" fill="white"/>
<circle cx="3063.89" cy="2649.87" r="22.8409" fill="white"/>
<circle cx="3063.89" cy="2649.87" r="13.3922" fill="#140C52"/>
<circle cx="2560.85" cy="2589.37" r="19.9738" fill="white"/>
<path d="M2524.64 2645.34C2524.64 2628.77 2538.07 2615.34 2554.64 2615.34H2565.36C2581.93 2615.34 2595.36 2628.77 2595.36 2645.34V2668.02H2524.64V2645.34Z" fill="white"/>
<circle cx="2627.24" cy="2612.42" r="14.1194" fill="white"/>
<path d="M2601.64 2655.78C2601.64 2641.97 2612.83 2630.78 2626.64 2630.78V2630.78C2640.44 2630.78 2651.63 2641.97 2651.63 2655.78V2668.02H2601.64V2655.78Z" fill="white"/>
<path d="M2281.33 2620.95C2280.96 2617.97 2283.28 2615.34 2286.29 2615.34H2402.08C2405.1 2615.34 2407.43 2618 2407.03 2621L2400.94 2666.7C2400.61 2669.18 2398.49 2671.03 2395.98 2671.03H2291.93C2289.4 2671.03 2287.27 2669.15 2286.96 2666.65L2281.33 2620.95Z" fill="white"/>
<rect x="2305.89" y="2583.09" width="78.2939" height="58.5928" rx="15" stroke="white" stroke-width="8"/>
<rect x="2333.59" y="2626.58" width="23.1664" height="12.8918" fill="#140C52"/>
<rect x="2333.59" y="2646.9" width="23.1664" height="12.8918" fill="#140C52"/>
<rect x="2300.42" y="2626.58" width="23.1664" height="12.8918" fill="#140C52"/>
<rect x="2300.42" y="2646.9" width="23.1664" height="12.8918" fill="#140C52"/>
<rect x="2366.75" y="2626.58" width="23.1664" height="12.8918" fill="#140C52"/>
<rect x="2366.75" y="2646.9" width="23.1664" height="12.8918" fill="#140C52"/>
<path d="M2896.18 879.429L2892.65 875.894L2892.49 876.054L2892.34 876.228L2896.18 879.429ZM2893.18 920.829V925.829H2898.18V920.829H2893.18ZM2822.98 920.829H2817.98V925.829H2822.98V920.829ZM2908.18 803.829L2904.65 800.294L2904.49 800.454L2904.34 800.628L2908.18 803.829ZM2908.18 715.629L2904.34 718.83L2904.49 719.004L2904.65 719.165L2908.18 715.629ZM2846.38 715.629L2842.85 712.094L2842.69 712.254L2842.54 712.428L2846.38 715.629ZM2843.38 754.629V759.629H2848.38V754.629H2843.38ZM2768.98 754.629H2763.98V759.629H2768.98V754.629ZM2828.98 967.029L2832.52 970.565L2832.52 970.565L2828.98 967.029ZM2890.18 1028.23L2886.65 1024.69L2886.65 1024.69L2890.18 1028.23ZM2828.98 1028.23L2832.52 1024.69L2832.52 1024.69L2828.98 1028.23ZM2904.58 875.829V870.829C2899.97 870.829 2895.92 872.619 2892.65 875.894L2896.18 879.429L2899.72 882.965C2901.25 881.439 2902.8 880.829 2904.58 880.829V875.829ZM2896.18 879.429L2892.34 876.228C2889.58 879.55 2888.18 883.49 2888.18 887.829H2893.18H2898.18C2898.18 885.768 2898.79 884.108 2900.03 882.63L2896.18 879.429ZM2893.18 887.829H2888.18V920.829H2893.18H2898.18V887.829H2893.18ZM2893.18 920.829V915.829H2822.98V920.829V925.829H2893.18V920.829ZM2822.98 920.829H2827.98V886.629H2822.98H2817.98V920.829H2822.98ZM2822.98 886.629H2827.98C2827.98 860.925 2834.03 842.577 2845.23 830.652C2856.38 818.787 2873.44 812.429 2897.38 812.429V807.429V802.429C2871.73 802.429 2851.59 809.271 2837.94 823.806C2824.34 838.281 2817.98 859.534 2817.98 886.629H2822.98ZM2897.38 807.429V812.429H2900.38V807.429V802.429H2897.38V807.429ZM2900.38 807.429V812.429C2905.03 812.429 2909.05 810.602 2912.03 807.03L2908.18 803.829L2904.34 800.628C2903.32 801.857 2902.14 802.429 2900.38 802.429V807.429ZM2908.18 803.829L2911.72 807.365C2914.99 804.09 2916.78 800.042 2916.78 795.429H2911.78H2906.78C2906.78 797.216 2906.17 798.768 2904.65 800.294L2908.18 803.829ZM2911.78 795.429H2916.78V724.029H2911.78H2906.78V795.429H2911.78ZM2911.78 724.029H2916.78C2916.78 719.416 2914.99 715.368 2911.72 712.094L2908.18 715.629L2904.65 719.165C2906.17 720.69 2906.78 722.242 2906.78 724.029H2911.78ZM2908.18 715.629L2912.03 712.428C2909.05 708.857 2905.03 707.029 2900.38 707.029V712.029V717.029C2902.14 717.029 2903.32 717.602 2904.34 718.83L2908.18 715.629ZM2900.38 712.029V707.029H2854.78V712.029V717.029H2900.38V712.029ZM2854.78 712.029V707.029C2850.17 707.029 2846.12 708.819 2842.85 712.094L2846.38 715.629L2849.92 719.165C2851.45 717.639 2853 717.029 2854.78 717.029V712.029ZM2846.38 715.629L2842.54 712.428C2839.78 715.75 2838.38 719.69 2838.38 724.029H2843.38H2848.38C2848.38 721.968 2848.99 720.308 2850.23 718.83L2846.38 715.629ZM2843.38 724.029H2838.38V754.629H2843.38H2848.38V724.029H2843.38ZM2843.38 754.629V749.629H2768.98V754.629V759.629H2843.38V754.629ZM2768.98 754.629H2773.98V725.829H2768.98H2763.98V754.629H2768.98ZM2768.98 725.829H2773.98C2773.98 700.125 2780.03 681.777 2791.23 669.852C2802.38 657.987 2819.44 651.629 2843.38 651.629V646.629V641.629C2817.73 641.629 2797.59 648.471 2783.94 663.006C2770.34 677.481 2763.98 698.733 2763.98 725.829H2768.98ZM2843.38 646.629V651.629H2909.98V646.629V641.629H2843.38V646.629ZM2909.98 646.629V651.629C2933.93 651.629 2950.99 657.987 2962.14 669.852C2973.34 681.777 2979.38 700.125 2979.38 725.829H2984.38H2989.38C2989.38 698.733 2983.03 677.481 2969.43 663.006C2955.78 648.471 2935.64 641.629 2909.98 641.629V646.629ZM2984.38 725.829H2979.38V796.629H2984.38H2989.38V725.829H2984.38ZM2984.38 796.629H2979.38C2979.38 822.334 2973.34 840.681 2962.14 852.606C2950.99 864.471 2933.93 870.829 2909.98 870.829V875.829V880.829C2935.64 880.829 2955.78 873.987 2969.43 859.452C2983.03 844.977 2989.38 823.725 2989.38 796.629H2984.38ZM2909.98 875.829V870.829H2904.58V875.829V880.829H2909.98V875.829ZM2816.38 997.629H2821.38C2821.38 986.94 2825.07 978.016 2832.52 970.565L2828.98 967.029L2825.45 963.494C2816.1 972.842 2811.38 984.318 2811.38 997.629H2816.38ZM2828.98 967.029L2832.52 970.565C2839.97 963.113 2848.9 959.429 2859.58 959.429V954.429V949.429C2846.27 949.429 2834.8 954.145 2825.45 963.494L2828.98 967.029ZM2859.58 954.429V959.429C2870.27 959.429 2879.2 963.113 2886.65 970.565L2890.18 967.029L2893.72 963.494C2884.37 954.145 2872.9 949.429 2859.58 949.429V954.429ZM2890.18 967.029L2886.65 970.565C2894.1 978.016 2897.78 986.94 2897.78 997.629H2902.78H2907.78C2907.78 984.318 2903.07 972.842 2893.72 963.494L2890.18 967.029ZM2902.78 997.629H2897.78C2897.78 1008.32 2894.1 1017.24 2886.65 1024.69L2890.18 1028.23L2893.72 1031.76C2903.07 1022.42 2907.78 1010.94 2907.78 997.629H2902.78ZM2890.18 1028.23L2886.65 1024.69C2879.2 1032.15 2870.27 1035.83 2859.58 1035.83V1040.83V1045.83C2872.9 1045.83 2884.37 1041.11 2893.72 1031.76L2890.18 1028.23ZM2859.58 1040.83V1035.83C2848.9 1035.83 2839.97 1032.15 2832.52 1024.69L2828.98 1028.23L2825.45 1031.76C2834.8 1041.11 2846.27 1045.83 2859.58 1045.83V1040.83ZM2828.98 1028.23L2832.52 1024.69C2825.07 1017.24 2821.38 1008.32 2821.38 997.629H2816.38H2811.38C2811.38 1010.94 2816.1 1022.42 2825.45 1031.76L2828.98 1028.23Z" fill="white"/>
<rect x="6703.03" y="1044.97" width="64.4775" height="38.8654" rx="7.5" fill="#191919" stroke="#61D4FF" stroke-width="5"/>
<rect x="6821.4" y="1047.47" width="59.4775" height="33.8654" rx="5" fill="#3C6EB4"/>
<circle cx="7203.7" cy="710.962" r="100.404" fill="#61D4FF" stroke="white" stroke-width="10"/>
<path d="M6946.84 665.803C6946.22 665.506 6945.46 665.749 6945.16 666.37L6942.68 671.424C6942.54 671.721 6942.52 672.072 6942.62 672.369C6942.73 672.694 6942.95 672.937 6943.25 673.099C6957.68 680.233 6966.65 694.636 6966.65 710.688C6966.65 726.955 6957.08 741.899 6942.27 748.736C6941.98 748.871 6941.73 749.114 6941.62 749.438C6941.52 749.736 6941.52 750.087 6941.65 750.384L6944.03 755.518C6944.25 755.978 6944.68 756.248 6945.16 756.248C6945.35 756.248 6945.52 756.221 6945.68 756.14C6963.35 748.006 6974.78 730.171 6974.78 710.715C6974.78 691.258 6964.08 674.315 6946.84 665.83V665.803Z" fill="#1C1363"/>
<path d="M6960.95 710.714C6960.95 694.554 6951.35 679.962 6936.52 673.557C6936.22 673.422 6935.87 673.422 6935.57 673.557C6935.27 673.665 6935 673.909 6934.9 674.233L6932.65 679.421C6932.38 680.07 6932.65 680.799 6933.3 681.07C6945.17 686.204 6952.84 697.851 6952.81 710.741C6952.81 724.09 6944.79 735.899 6932.36 740.79C6931.71 741.033 6931.41 741.763 6931.65 742.411L6933.73 747.681C6933.87 747.978 6934.09 748.221 6934.41 748.356C6934.57 748.437 6934.73 748.464 6934.9 748.464C6935.06 748.464 6935.19 748.437 6935.36 748.383C6950.92 742.249 6960.97 727.495 6960.97 710.741L6960.95 710.714Z" fill="#1C1363"/>
<path d="M6922.68 662.776C6922.23 662.587 6921.77 662.668 6921.41 663.019L6891.26 691.231C6891.01 691.474 6890.83 691.798 6890.83 692.15V729.765C6890.83 730.117 6891.04 730.441 6891.31 730.684L6921.47 758.896C6921.71 759.112 6922.04 759.247 6922.33 759.247C6922.5 759.247 6922.52 759.22 6922.68 759.139C6923.14 758.95 6923.31 758.49 6923.31 758.004V663.965C6923.31 663.479 6923.17 663.019 6922.71 662.83L6922.68 662.776Z" fill="#1C1363"/>
<path d="M6865.07 692.663H6882.56C6883.23 692.663 6883.8 693.231 6883.8 693.906V728.901C6883.8 729.603 6883.23 730.144 6882.56 730.144H6865.07C6864.4 730.144 6863.83 729.576 6863.83 728.901V693.906C6863.83 693.231 6864.4 692.663 6865.07 692.663Z" fill="#1C1363"/>
<path d="M6692.17 762.509C6702.34 758.822 6708.67 750.544 6706.3 744.019C6703.93 737.495 6693.77 735.195 6683.6 738.882C6673.44 742.569 6667.11 750.847 6669.48 757.371C6671.84 763.896 6682 766.196 6692.17 762.509Z" fill="#1C1363"/>
<path d="M6746.6 746.655C6756.77 742.968 6763.09 734.69 6760.73 728.165C6758.36 721.64 6748.2 719.34 6738.03 723.027C6727.86 726.714 6721.54 734.992 6723.9 741.517C6726.27 748.041 6736.43 750.342 6746.6 746.655Z" fill="#1C1363"/>
<path d="M6706.7 678.599H6695.7V747.262H6706.7V678.599Z" fill="#1C1363"/>
<path d="M6760.99 662.677H6750V731.34H6760.99V662.677Z" fill="#1C1363"/>
<path d="M6700.97 689.075C6698.03 689.075 6696.12 688.921 6695.86 688.895L6696.81 678.625C6696.99 678.625 6715.19 680.173 6727.86 672.484C6742.49 663.607 6745.58 662.782 6750.74 662.833H6751.18V673.155H6750.72C6748.32 673.155 6746.67 673.155 6733.22 681.308C6722.08 688.069 6708.3 689.101 6700.99 689.101L6700.97 689.075Z" fill="#1C1363"/>
<path d="M6700.97 714.309C6698.03 714.309 6696.12 714.154 6695.86 714.128L6696.81 703.858C6696.99 703.858 6715.19 705.406 6727.86 697.717C6742.49 688.84 6745.63 688.118 6750.74 688.066H6751.18V698.388H6750.72C6748.27 698.388 6746.67 698.388 6733.22 706.542C6722.08 713.302 6708.3 714.334 6700.99 714.334L6700.97 714.309Z" fill="#1C1363"/>
<circle cx="7067.14" cy="1081.33" r="57.0941" fill="#61D4FF" stroke="white" stroke-width="5"/>
<circle cx="7325.3" cy="1081.33" r="78.9346" fill="white" stroke="white" stroke-width="5"/>
<rect x="6693.2" y="1323.76" width="396.582" height="142.656" rx="7.5" stroke="#61D4FF" stroke-width="5"/>
<rect x="7166.88" y="1326.26" width="427.344" height="137.656" rx="5" fill="#61D4FF"/>
<path d="M2850.27 2106.39C2847.27 2104.66 2847.27 2100.33 2850.27 2098.6L2925.32 2055.27C2928.32 2053.54 2932.07 2055.71 2932.07 2059.17L2932.07 2145.82C2932.07 2149.29 2928.32 2151.45 2925.32 2149.72L2850.27 2106.39Z" fill="#5CD1FF" stroke="black"/>
<path d="M3119.62 2106.39C3122.62 2104.66 3122.62 2100.33 3119.62 2098.6L3044.58 2055.27C3041.58 2053.54 3037.83 2055.71 3037.83 2059.17L3037.83 2145.82C3037.83 2149.29 3041.58 2151.45 3044.58 2149.72L3119.62 2106.39Z" fill="#5CD1FF" stroke="black"/>
<rect x="4297.91" y="641.682" width="195" height="195" fill="#3A109F" fill-opacity="0.5" stroke="#61D4FF" stroke-width="5"/>
<path d="M3771.53 1720.7C3781.45 1720.7 3786.41 1725.98 3786.41 1736.54V1782.5C3786.41 1793.06 3781.45 1798.34 3771.53 1798.34H3740.69V1720.7H3771.53ZM3769.61 1784.42V1734.5C3769.61 1733.86 3769.37 1733.3 3768.89 1732.82C3768.49 1732.34 3767.97 1732.1 3767.33 1732.1H3757.49V1786.82H3767.33C3767.97 1786.82 3768.49 1786.58 3768.89 1786.1C3769.37 1785.62 3769.61 1785.06 3769.61 1784.42ZM3818.25 1732.46C3816.57 1734.14 3814.53 1734.98 3812.13 1734.98C3809.73 1734.98 3807.65 1734.14 3805.89 1732.46C3804.13 1730.7 3803.25 1728.62 3803.25 1726.22C3803.25 1723.74 3804.13 1721.66 3805.89 1719.98C3807.65 1718.22 3809.73 1717.34 3812.13 1717.34C3814.53 1717.34 3816.57 1718.22 3818.25 1719.98C3820.01 1721.66 3820.89 1723.74 3820.89 1726.22C3820.89 1728.7 3820.01 1730.78 3818.25 1732.46ZM3804.09 1798.34V1739.78H3820.17V1798.34H3804.09ZM3864.82 1739.78H3878.38V1798.34H3864.82V1794.02C3862.34 1797.7 3858.22 1799.54 3852.46 1799.54H3849.94C3840.02 1799.54 3835.06 1794.26 3835.06 1783.7V1754.42C3835.06 1743.86 3840.02 1738.58 3849.94 1738.58H3852.46C3858.22 1738.58 3862.34 1740.42 3864.82 1744.1V1739.78ZM3862.3 1785.62V1752.5C3862.3 1751.86 3862.06 1751.3 3861.58 1750.82C3861.18 1750.34 3860.66 1750.1 3860.02 1750.1H3853.42C3852.78 1750.1 3852.22 1750.34 3851.74 1750.82C3851.34 1751.3 3851.14 1751.86 3851.14 1752.5V1785.62C3851.14 1786.26 3851.34 1786.82 3851.74 1787.3C3852.22 1787.78 3852.78 1788.02 3853.42 1788.02H3860.02C3860.66 1788.02 3861.18 1787.78 3861.58 1787.3C3862.06 1786.82 3862.3 1786.26 3862.3 1785.62ZM3945.72 1738.58C3955.64 1738.58 3960.6 1743.86 3960.6 1754.42V1798.34H3944.52V1752.5C3944.52 1751.86 3944.28 1751.3 3943.8 1750.82C3943.4 1750.34 3942.88 1750.1 3942.24 1750.1H3937.08C3936.44 1750.1 3935.88 1750.34 3935.4 1750.82C3935 1751.3 3934.8 1751.86 3934.8 1752.5V1798.34H3918.72V1752.5C3918.72 1751.86 3918.48 1751.3 3918 1750.82C3917.6 1750.34 3917.08 1750.1 3916.44 1750.1H3911.28C3910.64 1750.1 3910.08 1750.34 3909.6 1750.82C3909.2 1751.3 3909 1751.86 3909 1752.5V1798.34H3892.92V1739.78H3907.56V1742.78C3910.04 1739.98 3913.8 1738.58 3918.84 1738.58H3919.92C3925.84 1738.58 3929.96 1740.42 3932.28 1744.1C3934.76 1740.42 3938.88 1738.58 3944.64 1738.58H3945.72ZM4019.18 1754.42V1783.7C4019.18 1794.26 4014.22 1799.54 4004.3 1799.54H3990.74C3980.82 1799.54 3975.86 1794.26 3975.86 1783.7V1754.42C3975.86 1743.86 3980.82 1738.58 3990.74 1738.58H4004.3C4014.22 1738.58 4019.18 1743.86 4019.18 1754.42ZM4003.1 1787.06V1750.94C4003.1 1750.3 4002.86 1749.74 4002.38 1749.26C4001.98 1748.78 4001.46 1748.54 4000.82 1748.54H3994.22C3993.58 1748.54 3993.02 1748.78 3992.54 1749.26C3992.14 1749.74 3991.94 1750.3 3991.94 1750.94V1787.06C3991.94 1787.7 3992.14 1788.26 3992.54 1788.74C3993.02 1789.22 3993.58 1789.46 3994.22 1789.46H4000.82C4001.46 1789.46 4001.98 1789.22 4002.38 1788.74C4002.86 1788.26 4003.1 1787.7 4003.1 1787.06ZM4049.79 1798.34H4033.71V1739.78H4048.35V1742.78C4050.83 1739.98 4054.59 1738.58 4059.63 1738.58H4062.15C4072.07 1738.58 4077.03 1743.86 4077.03 1754.42V1798.34H4060.95V1752.5C4060.95 1751.86 4060.71 1751.3 4060.23 1750.82C4059.83 1750.34 4059.31 1750.1 4058.67 1750.1H4052.07C4051.43 1750.1 4050.87 1750.34 4050.39 1750.82C4049.99 1751.3 4049.79 1751.86 4049.79 1752.5V1798.34ZM4108.97 1738.58C4113.05 1738.58 4116.33 1739.54 4118.81 1741.46V1720.7H4134.89V1798.34H4121.33V1794.02C4118.85 1797.7 4114.73 1799.54 4108.97 1799.54H4106.45C4096.53 1799.54 4091.57 1794.26 4091.57 1783.7V1754.42C4091.57 1743.86 4096.53 1738.58 4106.45 1738.58H4108.97ZM4118.81 1785.62V1752.5C4118.81 1751.86 4118.57 1751.3 4118.09 1750.82C4117.69 1750.34 4117.17 1750.1 4116.53 1750.1H4109.93C4109.29 1750.1 4108.73 1750.34 4108.25 1750.82C4107.85 1751.3 4107.65 1751.86 4107.65 1752.5V1785.62C4107.65 1786.26 4107.85 1786.82 4108.25 1787.3C4108.73 1787.78 4109.29 1788.02 4109.93 1788.02H4116.53C4117.17 1788.02 4117.69 1787.78 4118.09 1787.3C4118.57 1786.82 4118.81 1786.26 4118.81 1785.62Z" fill="#5CD1FF"/>
<path d="M3790.68 663.355C3790.68 663.355 3791.75 663.394 3793.56 663.513C3795.22 663.513 3796.91 663.631 3798.53 663.789H3798.61L3839.88 665.641C3839.88 665.641 3840.67 665.641 3841.81 665.838C3842.32 665.917 3842.8 666.036 3843.27 666.193C3843.51 666.272 3843.7 666.311 3843.94 666.43C3844.3 666.548 3844.61 666.666 3844.93 666.824C3845.4 667.021 3845.83 667.297 3846.31 667.573C3846.31 667.573 3846.35 667.573 3846.38 667.612C3847.53 668.322 3848.63 669.268 3849.66 670.529C3850.09 671.002 3850.4 671.436 3850.56 671.672C3850.56 671.672 3850.56 671.672 3850.56 671.712C3850.6 671.791 3850.68 671.87 3850.72 671.948C3851.27 672.737 3887.62 721.656 3890.42 725.835C3891.84 727.963 3891.84 729.737 3891.48 731.038C3891.84 731.393 3891.99 732.102 3890.73 733.64L3828.37 804.161C3810.95 824.146 3796.36 841.018 3795.06 842.713C3793.96 844.171 3792.81 844.684 3791.83 844.684C3789.86 844.684 3788.36 842.713 3788.36 842.713L3693 733.955C3688.27 728.791 3693 724.494 3693 724.494L3733.84 670.214C3733.84 670.214 3735.3 668.361 3738.02 666.982C3738.85 666.508 3739.87 666.114 3741.13 665.878H3741.25C3742.04 665.72 3742.91 665.602 3743.82 665.602L3783 663.67H3783.47C3783.47 663.67 3784.57 663.592 3786.31 663.513L3790.65 663.316M3790.68 659.413H3790.49L3786.15 659.65C3784.38 659.728 3783.24 659.807 3783.24 659.807H3782.84L3743.66 661.739H3743.62C3742.79 661.739 3741.8 661.857 3740.74 662.054H3740.58C3739.08 662.33 3737.63 662.803 3736.29 663.552C3732.94 665.247 3731.04 667.573 3730.85 667.809L3690.13 721.971C3689.3 722.839 3687.25 725.322 3687.09 728.83C3687.01 730.762 3687.49 733.679 3690.21 736.675L3785.44 845.275C3786.07 846.063 3788.44 848.665 3791.95 848.665C3793.64 848.665 3796.09 848.074 3798.29 845.157C3798.81 844.487 3803.02 839.441 3831.44 806.802L3893.77 736.281C3895.7 733.994 3895.93 732.102 3895.66 730.723C3895.9 728.83 3895.58 726.386 3893.81 723.706C3891.4 720.119 3865.54 685.233 3854.54 670.411L3853.99 669.701V669.623L3853.91 669.465H3853.87C3853.64 669.11 3853.28 668.637 3852.77 668.046C3851.55 666.587 3850.13 665.326 3848.55 664.34L3848.43 664.262H3848.36C3847.76 663.868 3847.21 663.552 3846.66 663.316C3846.34 663.158 3845.91 662.961 3845.44 662.803C3845.12 662.685 3844.85 662.606 3844.57 662.527C3843.86 662.291 3843.23 662.172 3842.64 662.054C3841.26 661.778 3840.23 661.778 3840.04 661.778L3799.12 659.926H3799.04H3798.88C3797.39 659.807 3795.69 659.689 3793.8 659.65L3791.04 659.492H3790.84L3790.68 659.413Z" fill="#5CD1FF"/>
<path d="M3690.04 727.47L3735.09 746.652H3848.03L3893.08 729.409" stroke="#5CD1FF" stroke-width="2"/>
<path d="M3735.3 667.978V746.869L3792.21 846.667L3847.82 746.869V666.254" stroke="#5CD1FF" stroke-width="2"/>
<path d="M3735.64 747.18L3792.62 672.242L3847.72 747.18" stroke="#5CD1FF" stroke-width="2"/>
<path d="M3734.84 668.172L3793.52 670.303L3848.28 668.172" stroke="#5CD1FF"/>
<path d="M3769.61 1939.67V1927.67H3785.57V1937.75C3785.57 1948.31 3780.61 1953.59 3770.69 1953.59H3755.57C3745.65 1953.59 3740.69 1948.31 3740.69 1937.75V1889.39C3740.69 1878.83 3745.65 1873.55 3755.57 1873.55H3770.69C3780.61 1873.55 3785.57 1878.83 3785.57 1889.39V1896.71H3769.61V1887.35C3769.61 1886.71 3769.37 1886.15 3768.89 1885.67C3768.49 1885.19 3767.97 1884.95 3767.33 1884.95H3759.77C3759.13 1884.95 3758.57 1885.19 3758.09 1885.67C3757.69 1886.15 3757.49 1886.71 3757.49 1887.35V1939.67C3757.49 1940.31 3757.69 1940.87 3758.09 1941.35C3758.57 1941.83 3759.13 1942.07 3759.77 1942.07H3767.33C3767.97 1942.07 3768.49 1941.83 3768.89 1941.35C3769.37 1940.87 3769.61 1940.31 3769.61 1939.67ZM3841.97 1908.47V1937.75C3841.97 1948.31 3837.01 1953.59 3827.09 1953.59H3813.53C3803.61 1953.59 3798.65 1948.31 3798.65 1937.75V1908.47C3798.65 1897.91 3803.61 1892.63 3813.53 1892.63H3827.09C3837.01 1892.63 3841.97 1897.91 3841.97 1908.47ZM3825.89 1941.11V1904.99C3825.89 1904.35 3825.65 1903.79 3825.17 1903.31C3824.77 1902.83 3824.25 1902.59 3823.61 1902.59H3817.01C3816.37 1902.59 3815.81 1902.83 3815.33 1903.31C3814.93 1903.79 3814.73 1904.35 3814.73 1904.99V1941.11C3814.73 1941.75 3814.93 1942.31 3815.33 1942.79C3815.81 1943.27 3816.37 1943.51 3817.01 1943.51H3823.61C3824.25 1943.51 3824.77 1943.27 3825.17 1942.79C3825.65 1942.31 3825.89 1941.75 3825.89 1941.11ZM3872.83 1886.51C3871.15 1888.19 3869.11 1889.03 3866.71 1889.03C3864.31 1889.03 3862.23 1888.19 3860.47 1886.51C3858.71 1884.75 3857.83 1882.67 3857.83 1880.27C3857.83 1877.79 3858.71 1875.71 3860.47 1874.03C3862.23 1872.27 3864.31 1871.39 3866.71 1871.39C3869.11 1871.39 3871.15 1872.27 3872.83 1874.03C3874.59 1875.71 3875.47 1877.79 3875.47 1880.27C3875.47 1882.75 3874.59 1884.83 3872.83 1886.51ZM3858.67 1952.39V1893.83H3874.75V1952.39H3858.67ZM3905.72 1952.39H3889.64V1893.83H3904.28V1896.83C3906.76 1894.03 3910.52 1892.63 3915.56 1892.63H3918.08C3928 1892.63 3932.96 1897.91 3932.96 1908.47V1952.39H3916.88V1906.55C3916.88 1905.91 3916.64 1905.35 3916.16 1904.87C3915.76 1904.39 3915.24 1904.15 3914.6 1904.15H3908C3907.36 1904.15 3906.8 1904.39 3906.32 1904.87C3905.92 1905.35 3905.72 1905.91 3905.72 1906.55V1952.39Z" fill="#5CD1FF"/>
<path d="M3771.53 2037.96C3781.45 2037.96 3786.41 2043.24 3786.41 2053.8V2102.16C3786.41 2112.72 3781.45 2118 3771.53 2118H3771.29V2124C3771.29 2125.2 3771.89 2125.8 3773.09 2125.8H3776.93V2137.56H3769.85C3765.93 2137.56 3762.85 2136.36 3760.61 2133.96C3758.45 2131.64 3757.37 2129 3757.37 2126.04V2118H3755.57C3745.65 2118 3740.69 2112.72 3740.69 2102.16V2053.8C3740.69 2043.24 3745.65 2037.96 3755.57 2037.96H3771.53ZM3757.49 2051.76V2104.08C3757.49 2104.72 3757.69 2105.28 3758.09 2105.76C3758.57 2106.24 3759.13 2106.48 3759.77 2106.48H3767.33C3767.97 2106.48 3768.49 2106.24 3768.89 2105.76C3769.37 2105.28 3769.61 2104.72 3769.61 2104.08V2051.76C3769.61 2051.12 3769.37 2050.56 3768.89 2050.08C3768.49 2049.6 3767.97 2049.36 3767.33 2049.36H3759.77C3759.13 2049.36 3758.57 2049.6 3758.09 2050.08C3757.69 2050.56 3757.49 2051.12 3757.49 2051.76ZM3827.88 2058.24H3843.96V2116.8H3829.32V2113.8C3826.84 2116.6 3823.08 2118 3818.04 2118H3815.52C3805.6 2118 3800.64 2112.72 3800.64 2102.16V2058.24H3816.72V2104.08C3816.72 2104.72 3816.92 2105.28 3817.32 2105.76C3817.8 2106.24 3818.36 2106.48 3819 2106.48H3825.6C3826.24 2106.48 3826.76 2106.24 3827.16 2105.76C3827.64 2105.28 3827.88 2104.72 3827.88 2104.08V2058.24ZM3874.82 2050.92C3873.14 2052.6 3871.1 2053.44 3868.7 2053.44C3866.3 2053.44 3864.22 2052.6 3862.46 2050.92C3860.7 2049.16 3859.82 2047.08 3859.82 2044.68C3859.82 2042.2 3860.7 2040.12 3862.46 2038.44C3864.22 2036.68 3866.3 2035.8 3868.7 2035.8C3871.1 2035.8 3873.14 2036.68 3874.82 2038.44C3876.58 2040.12 3877.46 2042.2 3877.46 2044.68C3877.46 2047.16 3876.58 2049.24 3874.82 2050.92ZM3860.66 2116.8V2058.24H3876.74V2116.8H3860.66ZM3906.51 2104.92H3929.55V2116.8H3889.95V2105.52L3912.63 2070H3889.95V2058.24H3929.55V2068.92L3906.51 2104.92Z" fill="#5CD1FF"/>
<rect x="4002.45" y="654.913" width="190.574" height="168.537" rx="7.5" stroke="#61D4FF" stroke-width="5"/>
<path d="M4193.02 799.308V816.703C4193.02 820.845 4189.66 824.203 4185.52 824.203H4009.95C4005.8 824.203 4002.45 820.845 4002.45 816.703V799.308H4193.02Z" fill="#3C6EB4" stroke="#61D4FF" stroke-width="5"/>
<path d="M4101.71 737.059L4099.94 735.291L4099.86 735.372L4099.79 735.459L4101.71 737.059ZM4100.96 747.409V749.909H4103.46V747.409H4100.96ZM4083.41 747.409H4080.91V749.909H4083.41V747.409ZM4104.71 718.159L4102.94 716.391L4102.86 716.472L4102.79 716.559L4104.71 718.159ZM4104.71 696.109L4102.79 697.71L4102.86 697.797L4102.94 697.877L4104.71 696.109ZM4089.26 696.109L4087.49 694.341L4087.41 694.422L4087.34 694.509L4089.26 696.109ZM4088.51 705.859V708.359H4091.01V705.859H4088.51ZM4069.91 705.859H4067.41V708.359H4069.91V705.859ZM4084.91 758.959L4086.68 760.727L4086.68 760.727L4084.91 758.959ZM4100.21 774.259L4098.44 772.491L4098.44 772.491L4100.21 774.259ZM4084.91 774.259L4086.68 772.491L4086.68 772.491L4084.91 774.259ZM4103.81 736.159V733.659C4102.31 733.659 4100.98 734.254 4099.94 735.291L4101.71 737.059L4103.48 738.827C4103.64 738.664 4103.72 738.659 4103.81 738.659V736.159ZM4101.71 737.059L4099.79 735.459C4098.91 736.52 4098.46 737.79 4098.46 739.159H4100.96H4103.46C4103.46 738.929 4103.52 738.799 4103.63 738.66L4101.71 737.059ZM4100.96 739.159H4098.46V747.409H4100.96H4103.46V739.159H4100.96ZM4100.96 747.409V744.909H4083.41V747.409V749.909H4100.96V747.409ZM4083.41 747.409H4085.91V738.859H4083.41H4080.91V747.409H4083.41ZM4083.41 738.859H4085.91C4085.91 732.607 4087.38 728.383 4089.88 725.721C4092.36 723.088 4096.24 721.559 4102.01 721.559V719.059V716.559C4095.39 716.559 4089.97 718.33 4086.24 722.297C4082.54 726.235 4080.91 731.911 4080.91 738.859H4083.41ZM4102.01 719.059V721.559H4102.76V719.059V716.559H4102.01V719.059ZM4102.76 719.059V721.559C4104.28 721.559 4105.65 720.945 4106.63 719.76L4104.71 718.159L4102.79 716.559C4102.77 716.582 4102.76 716.588 4102.77 716.584C4102.77 716.582 4102.78 716.579 4102.78 716.575C4102.79 716.572 4102.79 716.568 4102.8 716.564C4102.81 716.561 4102.82 716.558 4102.82 716.557C4102.83 716.555 4102.83 716.555 4102.83 716.555C4102.83 716.555 4102.81 716.559 4102.76 716.559V719.059ZM4104.71 718.159L4106.48 719.927C4107.52 718.89 4108.11 717.566 4108.11 716.059H4105.61H4103.11C4103.11 716.153 4103.11 716.229 4102.94 716.391L4104.71 718.159ZM4105.61 716.059H4108.11V698.209H4105.61H4103.11V716.059H4105.61ZM4105.61 698.209H4108.11C4108.11 696.703 4107.52 695.379 4106.48 694.341L4104.71 696.109L4102.94 697.877C4103.11 698.04 4103.11 698.116 4103.11 698.209H4105.61ZM4104.71 696.109L4106.63 694.509C4105.65 693.323 4104.28 692.709 4102.76 692.709V695.209V697.709C4102.81 697.709 4102.83 697.713 4102.83 697.714C4102.83 697.714 4102.83 697.713 4102.82 697.712C4102.82 697.71 4102.81 697.708 4102.8 697.704C4102.79 697.701 4102.79 697.697 4102.78 697.693C4102.78 697.689 4102.77 697.686 4102.77 697.684C4102.76 697.68 4102.77 697.686 4102.79 697.71L4104.71 696.109ZM4102.76 695.209V692.709H4091.36V695.209V697.709H4102.76V695.209ZM4091.36 695.209V692.709C4089.86 692.709 4088.53 693.304 4087.49 694.341L4089.26 696.109L4091.03 697.877C4091.19 697.714 4091.27 697.709 4091.36 697.709V695.209ZM4089.26 696.109L4087.34 694.509C4086.46 695.57 4086.01 696.84 4086.01 698.209H4088.51H4091.01C4091.01 697.979 4091.07 697.849 4091.18 697.71L4089.26 696.109ZM4088.51 698.209H4086.01V705.859H4088.51H4091.01V698.209H4088.51ZM4088.51 705.859V703.359H4069.91V705.859V708.359H4088.51V705.859ZM4069.91 705.859H4072.41V698.659H4069.91H4067.41V705.859H4069.91ZM4069.91 698.659H4072.41C4072.41 692.407 4073.88 688.183 4076.38 685.521C4078.86 682.888 4082.74 681.359 4088.51 681.359V678.859V676.359C4081.89 676.359 4076.47 678.13 4072.74 682.097C4069.04 686.035 4067.41 691.711 4067.41 698.659H4069.91ZM4088.51 678.859V681.359H4105.16V678.859V676.359H4088.51V678.859ZM4105.16 678.859V681.359C4110.94 681.359 4114.82 682.888 4117.29 685.521C4119.79 688.183 4121.26 692.407 4121.26 698.659H4123.76H4126.26C4126.26 691.711 4124.63 686.035 4120.93 682.097C4117.21 678.13 4111.79 676.359 4105.16 676.359V678.859ZM4123.76 698.659H4121.26V716.359H4123.76H4126.26V698.659H4123.76ZM4123.76 716.359H4121.26C4121.26 722.611 4119.79 726.835 4117.29 729.497C4114.82 732.13 4110.94 733.659 4105.16 733.659V736.159V738.659C4111.79 738.659 4117.21 736.888 4120.93 732.921C4124.63 728.983 4126.26 723.307 4126.26 716.359H4123.76ZM4105.16 736.159V733.659H4103.81V736.159V738.659H4105.16V736.159ZM4081.76 766.609H4084.26C4084.26 764.265 4085.05 762.353 4086.68 760.727L4084.91 758.959L4083.14 757.191C4080.57 759.766 4079.26 762.954 4079.26 766.609H4081.76ZM4084.91 758.959L4086.68 760.727C4088.31 759.101 4090.22 758.309 4092.56 758.309V755.809V753.309C4088.91 753.309 4085.72 754.617 4083.14 757.191L4084.91 758.959ZM4092.56 755.809V758.309C4094.91 758.309 4096.82 759.101 4098.44 760.727L4100.21 758.959L4101.98 757.191C4099.41 754.617 4096.22 753.309 4092.56 753.309V755.809ZM4100.21 758.959L4098.44 760.727C4100.07 762.353 4100.86 764.265 4100.86 766.609H4103.36H4105.86C4105.86 762.954 4104.55 759.766 4101.98 757.191L4100.21 758.959ZM4103.36 766.609H4100.86C4100.86 768.954 4100.07 770.866 4098.44 772.491L4100.21 774.259L4101.98 776.027C4104.55 773.453 4105.86 770.265 4105.86 766.609H4103.36ZM4100.21 774.259L4098.44 772.491C4096.82 774.117 4094.91 774.909 4092.56 774.909V777.409V779.909C4096.22 779.909 4099.41 778.601 4101.98 776.027L4100.21 774.259ZM4092.56 777.409V774.909C4090.22 774.909 4088.31 774.117 4086.68 772.491L4084.91 774.259L4083.14 776.027C4085.72 778.601 4088.91 779.909 4092.56 779.909V777.409ZM4084.91 774.259L4086.68 772.491C4085.05 770.866 4084.26 768.954 4084.26 766.609H4081.76H4079.26C4079.26 770.265 4080.57 773.453 4083.14 776.027L4084.91 774.259Z" fill="#5CD1FF"/>
<path d="M3757.49 2259.55V2290.03H3740.69V2212.39H3757.49V2244.91H3770.81V2212.39H3787.61V2290.03H3770.81V2259.55H3757.49ZM3831.07 2230.27C3840.99 2230.27 3845.95 2235.55 3845.95 2246.11V2265.07H3818.71V2277.31C3818.71 2277.95 3818.91 2278.51 3819.31 2278.99C3819.79 2279.47 3820.35 2279.71 3820.99 2279.71H3827.59C3828.23 2279.71 3828.75 2279.47 3829.15 2278.99C3829.63 2278.51 3829.87 2277.95 3829.87 2277.31V2270.83H3845.95V2275.39C3845.95 2285.95 3840.99 2291.23 3831.07 2291.23H3817.51C3807.59 2291.23 3802.63 2285.95 3802.63 2275.39V2246.11C3802.63 2235.55 3807.59 2230.27 3817.51 2230.27H3831.07ZM3818.71 2254.51H3829.87V2243.71C3829.87 2243.07 3829.63 2242.51 3829.15 2242.03C3828.75 2241.55 3828.23 2241.31 3827.59 2241.31H3820.99C3820.35 2241.31 3819.79 2241.55 3819.31 2242.03C3818.91 2242.51 3818.71 2243.07 3818.71 2243.71V2254.51ZM3874.46 2290.03H3858.38V2212.39H3874.46V2290.03ZM3917.26 2291.23H3914.74C3910.66 2291.23 3907.38 2290.27 3904.9 2288.35V2309.11H3888.82V2231.47H3902.38V2235.79C3904.86 2232.11 3908.98 2230.27 3914.74 2230.27H3917.26C3927.18 2230.27 3932.14 2235.55 3932.14 2246.11V2275.39C3932.14 2285.95 3927.18 2291.23 3917.26 2291.23ZM3904.9 2244.19V2277.31C3904.9 2277.95 3905.1 2278.51 3905.5 2278.99C3905.98 2279.47 3906.54 2279.71 3907.18 2279.71H3913.78C3914.42 2279.71 3914.94 2279.47 3915.34 2278.99C3915.82 2278.51 3916.06 2277.95 3916.06 2277.31V2244.19C3916.06 2243.55 3915.82 2242.99 3915.34 2242.51C3914.94 2242.03 3914.42 2241.79 3913.78 2241.79H3907.18C3906.54 2241.79 3905.98 2242.03 3905.5 2242.51C3905.1 2242.99 3904.9 2243.55 3904.9 2244.19ZM3975.12 2230.27C3985.04 2230.27 3990 2235.55 3990 2246.11V2265.07H3962.76V2277.31C3962.76 2277.95 3962.96 2278.51 3963.36 2278.99C3963.84 2279.47 3964.4 2279.71 3965.04 2279.71H3971.64C3972.28 2279.71 3972.8 2279.47 3973.2 2278.99C3973.68 2278.51 3973.92 2277.95 3973.92 2277.31V2270.83H3990V2275.39C3990 2285.95 3985.04 2291.23 3975.12 2291.23H3961.56C3951.64 2291.23 3946.68 2285.95 3946.68 2275.39V2246.11C3946.68 2235.55 3951.64 2230.27 3961.56 2230.27H3975.12ZM3962.76 2254.51H3973.92V2243.71C3973.92 2243.07 3973.68 2242.51 3973.2 2242.03C3972.8 2241.55 3972.28 2241.31 3971.64 2241.31H3965.04C3964.4 2241.31 3963.84 2241.55 3963.36 2242.03C3962.96 2242.51 3962.76 2243.07 3962.76 2243.71V2254.51ZM4027.38 2230.27H4030.5V2245.87H4022.58C4019.86 2245.87 4018.5 2247.27 4018.5 2250.07V2290.03H4002.42V2231.47H4017.06V2237.11C4019.38 2232.55 4022.82 2230.27 4027.38 2230.27Z" fill="#5CD1FF"/>
<rect x="4617.03" y="986.822" width="197" height="197" stroke="#61D4FF" stroke-width="3"/>
<circle cx="3791.42" cy="1084.35" r="95.5449" stroke="#5CD1FF" stroke-width="5"/>
<circle cx="3791.42" cy="1084.35" r="77.5251" stroke="#5CD1FF" stroke-width="2"/>
<path d="M3823.01 1049.48L3806.83 1036.53C3806.56 1036.33 3806.24 1036.21 3805.89 1036.21H3775.9C3775.55 1036.21 3775.24 1036.33 3774.96 1036.56L3759.71 1049.52C3759.4 1049.79 3759.21 1050.18 3759.21 1050.61V1073.72C3759.21 1074.5 3759.87 1075.2 3760.69 1075.2H3784.38C3785.2 1075.2 3785.86 1074.54 3785.86 1073.72V1055.39H3796.91V1073.1L3782.32 1086.6C3782.01 1086.87 3781.85 1087.26 3781.85 1087.65V1107.64C3781.85 1108.42 3782.51 1109.08 3783.29 1109.08H3806.79C3807.61 1109.08 3808.27 1108.42 3808.27 1107.64V1090.8L3823.17 1077.18C3823.48 1076.91 3823.63 1076.52 3823.63 1076.09V1050.57C3823.63 1050.14 3823.44 1049.71 3823.09 1049.44L3823.01 1049.48Z" fill="#5CD1FF"/>
<path d="M3806.79 1114.84H3783.25C3782.46 1114.84 3781.81 1115.49 3781.81 1116.28V1130.87C3781.81 1131.67 3782.46 1132.31 3783.25 1132.31H3806.79C3807.58 1132.31 3808.23 1131.67 3808.23 1130.87V1116.28C3808.23 1115.49 3807.58 1114.84 3806.79 1114.84Z" fill="#5CD1FF"/>
<path d="M3806.75 1114.84C3807.57 1114.84 3808.23 1115.51 3808.23 1116.28V1130.83C3808.23 1131.65 3807.57 1132.27 3806.75 1132.27H3783.25C3782.44 1132.27 3781.81 1131.61 3781.81 1130.83V1116.28C3781.81 1115.47 3782.47 1114.84 3783.25 1114.84H3806.75ZM3806.75 1113.64H3783.25C3781.81 1113.64 3780.61 1114.81 3780.61 1116.28V1130.83C3780.61 1132.31 3781.81 1133.52 3783.25 1133.52H3806.75C3808.23 1133.52 3809.4 1132.31 3809.4 1130.83V1116.28C3809.4 1114.81 3808.23 1113.64 3806.75 1113.64Z" fill="#5CD1FF"/>
<path d="M4160.91 1071.8C4160.91 1099.89 4142.8 1123.75 4117.63 1132.33V1156.64C4117.63 1156.64 4100.21 1156.64 4096.33 1156.64C4092.45 1156.64 4078.63 1156.64 4078.63 1156.64L4076.33 1132.33C4051.15 1123.75 4033.04 1099.89 4033.04 1071.8C4033.04 1036.49 4061.67 1007.87 4096.98 1007.87C4132.29 1007.87 4160.91 1036.49 4160.91 1071.8Z" stroke="#45D1FF" stroke-width="10"/>
<circle cx="4096.98" cy="1071.8" r="87.2194" stroke="#45D1FF" stroke-width="3" stroke-linecap="round" stroke-dasharray="11 11"/>
<rect x="4071.74" y="1167.94" width="51.5548" height="10.0954" fill="#45D1FF"/>
<path d="M4071.74 1182.39H4123.29V1182.39C4123.29 1192.11 4115.42 1199.98 4105.71 1199.98H4089.32C4079.61 1199.98 4071.74 1192.11 4071.74 1182.39V1182.39Z" fill="#45D1FF"/>
<circle cx="4098.19" cy="1071.57" r="30.9024" stroke="#45D1FF" stroke-width="5"/>
<rect x="5266.67" y="1242.45" width="233.4" height="185.28" fill="#3A109F" stroke="#61D4FF" stroke-width="3"/>
<rect width="119.488" height="119.488" transform="matrix(0.91125 0.411853 -0.91125 0.411853 5878.6 683.467)" fill="#5CD1FF"/>
<path d="M5878.6 597.678L5987.96 732.924L5878.6 870.03L5769.25 732.924L5878.6 597.678Z" stroke="#5CD1FF" stroke-width="5"/>
<rect width="93.1642" height="93.1642" transform="matrix(0.91125 0.411853 -0.91125 0.411853 5878.6 1010.68)" fill="#FF5D5D"/>
<path d="M5878.6 943.789L5963.87 1049.24L5878.6 1156.14L5793.34 1049.24L5878.6 943.789Z" stroke="#FF5D5D" stroke-width="5"/>
<mask id="path-109-outside-1_2447_14778" maskUnits="userSpaceOnUse" x="5850.59" y="1012.05" width="44" height="78" fill="black">
<rect fill="white" x="5850.59" y="1012.05" width="44" height="78"/>
<path d="M5871.9 1079.2V1034.2H5860.65V1022.35H5883.75V1079.2H5871.9Z"/>
</mask>
<path d="M5871.9 1079.2V1034.2H5860.65V1022.35H5883.75V1079.2H5871.9Z" fill="black"/>
<path d="M5871.9 1079.2H5861.9V1089.2H5871.9V1079.2ZM5871.9 1034.2H5881.9V1024.2H5871.9V1034.2ZM5860.65 1034.2H5850.65V1044.2H5860.65V1034.2ZM5860.65 1022.35V1012.35H5850.65V1022.35H5860.65ZM5883.75 1022.35H5893.75V1012.35H5883.75V1022.35ZM5883.75 1079.2V1089.2H5893.75V1079.2H5883.75ZM5871.9 1079.2H5881.9V1034.2H5871.9H5861.9V1079.2H5871.9ZM5871.9 1034.2V1024.2H5860.65V1034.2V1044.2H5871.9V1034.2ZM5860.65 1034.2H5870.65V1022.35H5860.65H5850.65V1034.2H5860.65ZM5860.65 1022.35V1032.35H5883.75V1022.35V1012.35H5860.65V1022.35ZM5883.75 1022.35H5873.75V1079.2H5883.75H5893.75V1022.35H5883.75ZM5883.75 1079.2V1069.2H5871.9V1079.2V1089.2H5883.75V1079.2Z" fill="#FF5D5D" mask="url(#path-109-outside-1_2447_14778)"/>
<rect width="98.2952" height="98.2952" transform="matrix(0.91125 0.411853 -0.91125 0.411853 5878.6 1275.76)" fill="#F9D32B"/>
<path d="M5878.6 1205.18L5968.56 1316.44L5878.6 1429.23L5788.64 1316.44L5878.6 1205.18Z" stroke="#F9D32B" stroke-width="5"/>
<mask id="path-113-outside-2_2447_14778" maskUnits="userSpaceOnUse" x="5837.8" y="1276.32" width="78" height="78" fill="black">
<rect fill="white" x="5837.8" y="1276.32" width="78" height="78"/>
<path d="M5848.68 1343.47V1331.62H5859.93V1320.37H5871.18V1309.12H5893.68V1298.47H5860.53V1309.72H5848.68V1297.87H5859.93V1286.62H5894.28V1297.87H5905.53V1309.72H5894.28V1320.97H5871.78V1331.62H5905.53V1343.47H5848.68Z"/>
</mask>
<path d="M5848.68 1343.47V1331.62H5859.93V1320.37H5871.18V1309.12H5893.68V1298.47H5860.53V1309.72H5848.68V1297.87H5859.93V1286.62H5894.28V1297.87H5905.53V1309.72H5894.28V1320.97H5871.78V1331.62H5905.53V1343.47H5848.68Z" fill="black"/>
<path d="M5848.68 1343.47H5838.68V1353.47H5848.68V1343.47ZM5848.68 1331.62V1321.62H5838.68V1331.62H5848.68ZM5859.93 1331.62V1341.62H5869.93V1331.62H5859.93ZM5859.93 1320.37V1310.37H5849.93V1320.37H5859.93ZM5871.18 1320.37V1330.37H5881.18V1320.37H5871.18ZM5871.18 1309.12V1299.12H5861.18V1309.12H5871.18ZM5893.68 1309.12V1319.12H5903.68V1309.12H5893.68ZM5893.68 1298.47H5903.68V1288.47H5893.68V1298.47ZM5860.53 1298.47V1288.47H5850.53V1298.47H5860.53ZM5860.53 1309.72V1319.72H5870.53V1309.72H5860.53ZM5848.68 1309.72H5838.68V1319.72H5848.68V1309.72ZM5848.68 1297.87V1287.87H5838.68V1297.87H5848.68ZM5859.93 1297.87V1307.87H5869.93V1297.87H5859.93ZM5859.93 1286.62V1276.62H5849.93V1286.62H5859.93ZM5894.28 1286.62H5904.28V1276.62H5894.28V1286.62ZM5894.28 1297.87H5884.28V1307.87H5894.28V1297.87ZM5905.53 1297.87H5915.53V1287.87H5905.53V1297.87ZM5905.53 1309.72V1319.72H5915.53V1309.72H5905.53ZM5894.28 1309.72V1299.72H5884.28V1309.72H5894.28ZM5894.28 1320.97V1330.97H5904.28V1320.97H5894.28ZM5871.78 1320.97V1310.97H5861.78V1320.97H5871.78ZM5871.78 1331.62H5861.78V1341.62H5871.78V1331.62ZM5905.53 1331.62H5915.53V1321.62H5905.53V1331.62ZM5905.53 1343.47V1353.47H5915.53V1343.47H5905.53ZM5848.68 1343.47H5858.68V1331.62H5848.68H5838.68V1343.47H5848.68ZM5848.68 1331.62V1341.62H5859.93V1331.62V1321.62H5848.68V1331.62ZM5859.93 1331.62H5869.93V1320.37H5859.93H5849.93V1331.62H5859.93ZM5859.93 1320.37V1330.37H5871.18V1320.37V1310.37H5859.93V1320.37ZM5871.18 1320.37H5881.18V1309.12H5871.18H5861.18V1320.37H5871.18ZM5871.18 1309.12V1319.12H5893.68V1309.12V1299.12H5871.18V1309.12ZM5893.68 1309.12H5903.68V1298.47H5893.68H5883.68V1309.12H5893.68ZM5893.68 1298.47V1288.47H5860.53V1298.47V1308.47H5893.68V1298.47ZM5860.53 1298.47H5850.53V1309.72H5860.53H5870.53V1298.47H5860.53ZM5860.53 1309.72V1299.72H5848.68V1309.72V1319.72H5860.53V1309.72ZM5848.68 1309.72H5858.68V1297.87H5848.68H5838.68V1309.72H5848.68ZM5848.68 1297.87V1307.87H5859.93V1297.87V1287.87H5848.68V1297.87ZM5859.93 1297.87H5869.93V1286.62H5859.93H5849.93V1297.87H5859.93ZM5859.93 1286.62V1296.62H5894.28V1286.62V1276.62H5859.93V1286.62ZM5894.28 1286.62H5884.28V1297.87H5894.28H5904.28V1286.62H5894.28ZM5894.28 1297.87V1307.87H5905.53V1297.87V1287.87H5894.28V1297.87ZM5905.53 1297.87H5895.53V1309.72H5905.53H5915.53V1297.87H5905.53ZM5905.53 1309.72V1299.72H5894.28V1309.72V1319.72H5905.53V1309.72ZM5894.28 1309.72H5884.28V1320.97H5894.28H5904.28V1309.72H5894.28ZM5894.28 1320.97V1310.97H5871.78V1320.97V1330.97H5894.28V1320.97ZM5871.78 1320.97H5861.78V1331.62H5871.78H5881.78V1320.97H5871.78ZM5871.78 1331.62V1341.62H5905.53V1331.62V1321.62H5871.78V1331.62ZM5905.53 1331.62H5895.53V1343.47H5905.53H5915.53V1331.62H5905.53ZM5905.53 1343.47V1333.47H5848.68V1343.47V1353.47H5905.53V1343.47Z" fill="#F9D32B" mask="url(#path-113-outside-2_2447_14778)"/>
<rect width="93.2816" height="93.2816" transform="matrix(0.91125 0.411853 -0.91125 0.411853 5888.38 1569.96)" fill="#5CFF67"/>
<path d="M5888.38 1502.99L5973.75 1608.58L5888.38 1715.61L5803.01 1608.58L5888.38 1502.99Z" stroke="#5CFF67" stroke-width="5"/>
<mask id="path-117-outside-3_2447_14778" maskUnits="userSpaceOnUse" x="5854.38" y="1569.69" width="78" height="78" fill="black">
<rect fill="white" x="5854.38" y="1569.69" width="78" height="78"/>
<path d="M5864.81 1636.84V1624.99H5909.81V1614.34H5876.06V1602.49H5909.81V1591.84H5864.81V1579.99H5910.41V1591.24H5921.66V1625.59H5910.41V1636.84H5864.81Z"/>
</mask>
<path d="M5864.81 1636.84V1624.99H5909.81V1614.34H5876.06V1602.49H5909.81V1591.84H5864.81V1579.99H5910.41V1591.24H5921.66V1625.59H5910.41V1636.84H5864.81Z" fill="black"/>
<path d="M5864.81 1636.84H5854.81V1646.84H5864.81V1636.84ZM5864.81 1624.99V1614.99H5854.81V1624.99H5864.81ZM5909.81 1624.99V1634.99H5919.81V1624.99H5909.81ZM5909.81 1614.34H5919.81V1604.34H5909.81V1614.34ZM5876.06 1614.34H5866.06V1624.34H5876.06V1614.34ZM5876.06 1602.49V1592.49H5866.06V1602.49H5876.06ZM5909.81 1602.49V1612.49H5919.81V1602.49H5909.81ZM5909.81 1591.84H5919.81V1581.84H5909.81V1591.84ZM5864.81 1591.84H5854.81V1601.84H5864.81V1591.84ZM5864.81 1579.99V1569.99H5854.81V1579.99H5864.81ZM5910.41 1579.99H5920.41V1569.99H5910.41V1579.99ZM5910.41 1591.24H5900.41V1601.24H5910.41V1591.24ZM5921.66 1591.24H5931.66V1581.24H5921.66V1591.24ZM5921.66 1625.59V1635.59H5931.66V1625.59H5921.66ZM5910.41 1625.59V1615.59H5900.41V1625.59H5910.41ZM5910.41 1636.84V1646.84H5920.41V1636.84H5910.41ZM5864.81 1636.84H5874.81V1624.99H5864.81H5854.81V1636.84H5864.81ZM5864.81 1624.99V1634.99H5909.81V1624.99V1614.99H5864.81V1624.99ZM5909.81 1624.99H5919.81V1614.34H5909.81H5899.81V1624.99H5909.81ZM5909.81 1614.34V1604.34H5876.06V1614.34V1624.34H5909.81V1614.34ZM5876.06 1614.34H5886.06V1602.49H5876.06H5866.06V1614.34H5876.06ZM5876.06 1602.49V1612.49H5909.81V1602.49V1592.49H5876.06V1602.49ZM5909.81 1602.49H5919.81V1591.84H5909.81H5899.81V1602.49H5909.81ZM5909.81 1591.84V1581.84H5864.81V1591.84V1601.84H5909.81V1591.84ZM5864.81 1591.84H5874.81V1579.99H5864.81H5854.81V1591.84H5864.81ZM5864.81 1579.99V1589.99H5910.41V1579.99V1569.99H5864.81V1579.99ZM5910.41 1579.99H5900.41V1591.24H5910.41H5920.41V1579.99H5910.41ZM5910.41 1591.24V1601.24H5921.66V1591.24V1581.24H5910.41V1591.24ZM5921.66 1591.24H5911.66V1625.59H5921.66H5931.66V1591.24H5921.66ZM5921.66 1625.59V1615.59H5910.41V1625.59V1635.59H5921.66V1625.59ZM5910.41 1625.59H5900.41V1636.84H5910.41H5920.41V1625.59H5910.41ZM5910.41 1636.84V1626.84H5864.81V1636.84V1646.84H5910.41V1636.84Z" fill="#5CFF67" mask="url(#path-117-outside-3_2447_14778)"/>
<path d="M509.319 1061.13H733.88C740.078 1061.13 744.099 1065.06 744.1 1068.79V1298.48C744.099 1302.21 740.078 1306.13 733.88 1306.13H509.319C503.121 1306.13 499.1 1302.21 499.1 1298.48V1068.79C499.1 1065.06 503.121 1061.13 509.319 1061.13Z" fill="#3A109F" stroke="#61D4FF" stroke-width="5"/>
<path d="M509.319 1379.57H733.88C736.999 1379.57 739.705 1380.36 741.551 1381.52C743.432 1382.69 744.1 1383.99 744.1 1385.01V1564.56C744.1 1565.58 743.432 1566.88 741.551 1568.05C739.705 1569.2 736.999 1570 733.88 1570H509.319C506.2 1570 503.494 1569.2 501.648 1568.05C499.768 1566.88 499.1 1565.58 499.1 1564.56V1385.01C499.1 1383.99 499.767 1382.69 501.648 1381.52C503.494 1380.36 506.2 1379.57 509.319 1379.57Z" stroke="#61D4FF" stroke-width="5"/>
<path d="M559.817 2833.03C565.107 2833.03 567.757 2835.85 567.757 2841.48V2849.74C567.757 2855.37 565.107 2858.19 559.817 2858.19H552.587V2874.45H543.627V2833.04H559.817V2833.03ZM558.797 2850.76V2840.46C558.797 2840.12 558.677 2839.82 558.447 2839.56C558.217 2839.3 557.927 2839.18 557.587 2839.18H552.597V2852.04H557.587C557.927 2852.04 558.217 2851.91 558.447 2851.66C558.677 2851.4 558.797 2851.11 558.797 2850.76Z" fill="#45D1FF"/>
<path d="M581.196 2866.89H590.986V2874.44H572.236V2833.03H581.196V2866.89Z" fill="#45D1FF"/>
<path d="M604.167 2867.02H614.087V2874.44H595.207V2833.03H614.087V2840.33H604.167V2850.06H613.447V2857.1H604.167V2867.02Z" fill="#45D1FF"/>
<path d="M635.717 2832.39C641.007 2832.39 643.657 2835.21 643.657 2840.84V2874.44H634.697V2860.55H628.237V2874.44H619.277V2840.84C619.277 2835.21 621.927 2832.39 627.217 2832.39H635.727H635.717ZM628.237 2853.64H634.697V2839.75C634.697 2839.41 634.577 2839.11 634.347 2838.85C634.117 2838.59 633.827 2838.47 633.487 2838.47H629.457C629.117 2838.47 628.827 2838.6 628.597 2838.85C628.367 2839.11 628.247 2839.4 628.247 2839.75V2853.64H628.237Z" fill="#45D1FF"/>
<path d="M673.287 2843.91H664.777V2840.65C664.777 2840.31 664.657 2840.01 664.427 2839.75C664.187 2839.49 663.907 2839.37 663.567 2839.37H660.047C659.707 2839.37 659.417 2839.5 659.187 2839.75C658.957 2840.01 658.837 2840.31 658.837 2840.65V2848.01C658.837 2848.35 658.957 2848.65 659.187 2848.91C659.417 2849.17 659.707 2849.29 660.047 2849.29H665.807C671.097 2849.38 673.747 2852.19 673.747 2857.74V2866.64C673.747 2872.27 671.097 2875.09 665.807 2875.09H658.257C652.967 2875.09 650.317 2872.27 650.317 2866.64V2862.35H658.827V2866.96C658.827 2867.3 658.947 2867.6 659.177 2867.86C659.407 2868.12 659.697 2868.24 660.037 2868.24H664.007C664.347 2868.24 664.637 2868.11 664.867 2867.86C665.097 2867.6 665.217 2867.31 665.217 2866.96V2858.83C665.217 2858.49 665.097 2858.19 664.867 2857.93C664.627 2857.67 664.347 2857.55 664.007 2857.55H658.247C652.957 2857.55 650.307 2854.73 650.307 2849.1V2840.84C650.307 2835.21 652.957 2832.39 658.247 2832.39H665.347C670.637 2832.39 673.287 2835.21 673.287 2840.84V2843.91Z" fill="#45D1FF"/>
<path d="M688.587 2867.02H698.507V2874.44H679.627V2833.03H698.507V2840.33H688.587V2850.06H697.867V2857.1H688.587V2867.02Z" fill="#45D1FF"/>
<path d="M739.587 2843.91H731.077V2840.65C731.077 2840.31 730.957 2840.01 730.727 2839.75C730.487 2839.49 730.207 2839.37 729.867 2839.37H726.347C726.007 2839.37 725.717 2839.5 725.487 2839.75C725.257 2840.01 725.137 2840.31 725.137 2840.65V2848.01C725.137 2848.35 725.257 2848.65 725.487 2848.91C725.717 2849.17 726.007 2849.29 726.347 2849.29H732.107C737.397 2849.38 740.047 2852.19 740.047 2857.74V2866.64C740.047 2872.27 737.397 2875.09 732.107 2875.09H724.557C719.267 2875.09 716.617 2872.27 716.617 2866.64V2862.35H725.127V2866.96C725.127 2867.3 725.247 2867.6 725.477 2867.86C725.707 2868.12 725.997 2868.24 726.337 2868.24H730.307C730.647 2868.24 730.937 2868.11 731.167 2867.86C731.397 2867.6 731.517 2867.31 731.517 2866.96V2858.83C731.517 2858.49 731.397 2858.19 731.167 2857.93C730.927 2857.67 730.647 2857.55 730.307 2857.55H724.547C719.257 2857.55 716.607 2854.73 716.607 2849.1V2840.84C716.607 2835.21 719.257 2832.39 724.547 2832.39H731.647C736.937 2832.39 739.587 2835.21 739.587 2840.84V2843.91Z" fill="#45D1FF"/>
<path d="M754.888 2867.02H764.808V2874.44H745.928V2833.03H764.808V2840.33H754.888V2850.06H764.168V2857.1H754.888V2867.02Z" fill="#45D1FF"/>
<path d="M778.946 2866.89H788.736V2874.44H769.986V2833.03H778.946V2866.89Z" fill="#45D1FF"/>
<path d="M801.927 2867.02H811.847V2874.44H792.967V2833.03H811.847V2840.33H801.927V2850.06H811.207V2857.1H801.927V2867.02Z" fill="#45D1FF"/>
<path d="M832.457 2867.66V2861.26H840.967V2866.64C840.967 2872.27 838.317 2875.09 833.027 2875.09H824.967C819.677 2875.09 817.027 2872.27 817.027 2866.64V2840.85C817.027 2835.22 819.677 2832.4 824.967 2832.4H833.027C838.317 2832.4 840.967 2835.22 840.967 2840.85V2844.75H832.457V2839.76C832.457 2839.42 832.337 2839.12 832.107 2838.86C831.877 2838.6 831.587 2838.48 831.247 2838.48H827.217C826.877 2838.48 826.587 2838.61 826.357 2838.86C826.127 2839.12 826.007 2839.41 826.007 2839.76V2867.66C826.007 2868 826.127 2868.3 826.357 2868.56C826.587 2868.82 826.877 2868.94 827.217 2868.94H831.247C831.587 2868.94 831.877 2868.81 832.107 2868.56C832.337 2868.3 832.457 2868.01 832.457 2867.66Z" fill="#45D1FF"/>
<path d="M843.977 2840.65V2833.03H866.377V2840.65H859.657V2874.44H850.697V2840.65H843.977Z" fill="#45D1FF"/>
<path d="M907.397 2833.03L898.497 2859.33V2874.43H889.537V2859.33L880.637 2833.03H889.087L894.017 2850.31L898.947 2833.03H907.397Z" fill="#45D1FF"/>
<path d="M935.617 2840.84V2866.63C935.617 2872.26 932.967 2875.08 927.677 2875.08H919.167C913.877 2875.08 911.227 2872.26 911.227 2866.63V2840.84C911.227 2835.21 913.877 2832.39 919.167 2832.39H927.677C932.967 2832.39 935.617 2835.21 935.617 2840.84ZM926.657 2867.66V2839.76C926.657 2839.42 926.537 2839.12 926.307 2838.86C926.077 2838.6 925.787 2838.48 925.447 2838.48H921.417C921.077 2838.48 920.787 2838.61 920.557 2838.86C920.327 2839.12 920.207 2839.41 920.207 2839.76V2867.66C920.207 2868 920.327 2868.3 920.557 2868.56C920.787 2868.82 921.077 2868.94 921.417 2868.94H925.447C925.787 2868.94 926.077 2868.81 926.307 2868.56C926.537 2868.3 926.657 2868.01 926.657 2867.66Z" fill="#45D1FF"/>
<path d="M956.997 2833.03H965.957V2866.63C965.957 2872.26 963.307 2875.08 958.017 2875.08H950.077C944.787 2875.08 942.137 2872.26 942.137 2866.63V2833.03H951.097V2867.4C951.097 2867.74 951.217 2868.04 951.447 2868.3C951.677 2868.56 951.967 2868.68 952.307 2868.68H955.767C956.107 2868.68 956.397 2868.55 956.627 2868.3C956.857 2868.04 956.977 2867.75 956.977 2867.4V2833.03H956.997Z" fill="#45D1FF"/>
<path d="M981.058 2857.48V2874.44H972.098V2833.03H988.038C993.328 2833.03 995.978 2835.85 995.978 2841.48V2846.28C995.978 2849.69 994.758 2851.87 992.328 2852.81C994.458 2853.58 995.528 2855.33 995.528 2858.06V2874.44H986.568V2858.76C986.568 2857.91 986.158 2857.48 985.348 2857.48H981.058ZM981.058 2839.11V2851.21H985.798C986.138 2851.21 986.428 2851.08 986.658 2850.83C986.888 2850.57 987.008 2850.28 987.008 2849.93V2840.39C987.008 2840.05 986.888 2839.75 986.658 2839.49C986.418 2839.23 986.138 2839.11 985.798 2839.11H981.058Z" fill="#45D1FF"/>
<path d="M1023.62 2866.89H1033.41V2874.44H1014.66V2833.03H1023.62V2866.89Z" fill="#45D1FF"/>
<path d="M1062.02 2840.84V2866.63C1062.02 2872.26 1059.37 2875.08 1054.08 2875.08H1045.57C1040.28 2875.08 1037.63 2872.26 1037.63 2866.63V2840.84C1037.63 2835.21 1040.28 2832.39 1045.57 2832.39H1054.08C1059.37 2832.39 1062.02 2835.21 1062.02 2840.84ZM1053.06 2867.66V2839.76C1053.06 2839.42 1052.94 2839.12 1052.71 2838.86C1052.48 2838.6 1052.19 2838.48 1051.85 2838.48H1047.82C1047.48 2838.48 1047.19 2838.61 1046.96 2838.86C1046.73 2839.12 1046.61 2839.41 1046.61 2839.76V2867.66C1046.61 2868 1046.73 2868.3 1046.96 2868.56C1047.19 2868.82 1047.48 2868.94 1047.82 2868.94H1051.85C1052.19 2868.94 1052.48 2868.81 1052.71 2868.56C1052.94 2868.3 1053.06 2868.01 1053.06 2867.66Z" fill="#45D1FF"/>
<path d="M1080.71 2857.99V2851.4H1092.55V2866.63C1092.55 2872.26 1089.9 2875.08 1084.61 2875.08H1076.55C1071.26 2875.08 1068.61 2872.26 1068.61 2866.63V2840.84C1068.61 2835.21 1071.26 2832.39 1076.55 2832.39H1084.61C1089.9 2832.39 1092.55 2835.21 1092.55 2840.84V2844.74H1084.04V2839.75C1084.04 2839.41 1083.92 2839.11 1083.69 2838.85C1083.46 2838.59 1083.17 2838.47 1082.83 2838.47H1078.8C1078.46 2838.47 1078.17 2838.6 1077.94 2838.85C1077.71 2839.11 1077.59 2839.4 1077.59 2839.75V2867.65C1077.59 2867.99 1077.71 2868.29 1077.94 2868.55C1078.17 2868.81 1078.46 2868.93 1078.8 2868.93H1082.83C1083.17 2868.93 1083.46 2868.8 1083.69 2868.55C1083.92 2868.29 1084.04 2868 1084.04 2867.65V2857.99H1080.71Z" fill="#45D1FF"/>
<path d="M1106.44 2833.03V2874.44H1097.48V2833.03H1106.44Z" fill="#45D1FF"/>
<path d="M1136.84 2874.44H1127.88V2840.07C1127.88 2839.73 1127.76 2839.43 1127.53 2839.17C1127.29 2838.91 1127.01 2838.79 1126.67 2838.79H1123.21C1122.87 2838.79 1122.58 2838.92 1122.35 2839.17C1122.11 2839.43 1122 2839.73 1122 2840.07V2874.44H1113.04V2840.84C1113.04 2835.21 1115.69 2832.39 1120.98 2832.39H1128.92C1134.21 2832.39 1136.86 2835.21 1136.86 2840.84V2874.44H1136.84Z" fill="#45D1FF"/>
<path d="M577.787 1891.39C588.777 1891.39 594.267 1897.24 594.267 1908.93V1978.71H575.657V1949.87H562.237V1978.71H543.627V1908.93C543.627 1897.23 549.117 1891.39 560.107 1891.39H577.787ZM562.237 1935.52H575.657V1906.68C575.657 1905.97 575.417 1905.35 574.927 1904.82C574.437 1904.29 573.837 1904.02 573.137 1904.02H564.767C564.057 1904.02 563.457 1904.29 562.977 1904.82C562.487 1905.35 562.247 1905.97 562.247 1906.68V1935.52H562.237Z" fill="white"/>
<path d="M641.577 1892.72C652.567 1892.72 658.057 1898.57 658.057 1910.26V1927.41C658.057 1939.11 652.567 1944.95 641.577 1944.95H626.557V1978.71H607.947V1892.72H641.577ZM639.447 1929.54V1908.14C639.447 1907.43 639.197 1906.81 638.717 1906.28C638.227 1905.75 637.627 1905.48 636.927 1905.48H626.557V1932.19H636.927C637.637 1932.19 638.237 1931.92 638.717 1931.39C639.207 1930.86 639.447 1930.24 639.447 1929.53V1929.54Z" fill="white"/>
<path d="M700.857 1892.72C711.847 1892.72 717.337 1898.57 717.337 1910.26V1927.41C717.337 1939.11 711.847 1944.95 700.857 1944.95H685.837V1978.71H667.227V1892.72H700.857ZM698.727 1929.54V1908.14C698.727 1907.43 698.477 1906.81 697.997 1906.28C697.507 1905.75 696.907 1905.48 696.207 1905.48H685.837V1932.19H696.207C696.917 1932.19 697.517 1931.92 697.997 1931.39C698.487 1930.86 698.727 1930.24 698.727 1929.53V1929.54Z" fill="white"/>
<path d="M745.247 1963.03H765.577V1978.71H726.637V1892.72H745.247V1963.03Z" fill="white"/>
<path d="M792.958 1963.29H813.558V1978.71H774.348V1892.72H813.558V1907.87H792.958V1928.07H812.228V1942.69H792.958V1963.29Z" fill="white"/>
<path d="M568.747 2183.55V2169.86H593.337V2201.49C593.337 2213.19 587.847 2219.03 576.857 2219.03H560.107C549.117 2219.03 543.627 2213.18 543.627 2201.49V2147.93C543.627 2136.23 549.117 2130.39 560.107 2130.39H576.857C587.847 2130.39 593.337 2136.24 593.337 2147.93V2156.04H575.657V2145.67C575.657 2144.96 575.417 2144.34 574.927 2143.81C574.437 2143.28 573.837 2143.01 573.137 2143.01H564.767C564.057 2143.01 563.457 2143.28 562.977 2143.81C562.487 2144.34 562.247 2144.96 562.247 2145.67V2203.62C562.247 2204.33 562.487 2204.95 562.977 2205.48C563.467 2206.01 564.057 2206.28 564.767 2206.28H573.137C573.847 2206.28 574.447 2206.01 574.927 2205.48C575.417 2204.95 575.657 2204.33 575.657 2203.62V2183.55H568.747Z" fill="white"/>
<path d="M654.206 2147.93V2201.49C654.206 2213.19 648.716 2219.03 637.726 2219.03H620.046C609.056 2219.03 603.566 2213.18 603.566 2201.49V2147.93C603.566 2136.23 609.056 2130.39 620.046 2130.39H637.726C648.716 2130.39 654.206 2136.24 654.206 2147.93ZM635.596 2203.62V2145.67C635.596 2144.96 635.356 2144.34 634.866 2143.81C634.376 2143.28 633.776 2143.01 633.076 2143.01H624.706C623.996 2143.01 623.397 2143.28 622.917 2143.81C622.427 2144.34 622.187 2144.96 622.187 2145.67V2203.62C622.187 2204.33 622.427 2204.95 622.917 2205.48C623.407 2206.01 623.996 2206.28 624.706 2206.28H633.076C633.786 2206.28 634.386 2206.01 634.866 2205.48C635.356 2204.95 635.596 2204.33 635.596 2203.62Z" fill="white"/>
<path d="M718.527 2147.93V2201.49C718.527 2213.19 713.037 2219.03 702.047 2219.03H684.367C673.377 2219.03 667.887 2213.18 667.887 2201.49V2147.93C667.887 2136.23 673.377 2130.39 684.367 2130.39H702.047C713.037 2130.39 718.527 2136.24 718.527 2147.93ZM699.927 2203.62V2145.67C699.927 2144.96 699.687 2144.34 699.197 2143.81C698.707 2143.28 698.107 2143.01 697.407 2143.01H689.037C688.327 2143.01 687.727 2143.28 687.247 2143.81C686.757 2144.34 686.517 2144.96 686.517 2145.67V2203.62C686.517 2204.33 686.757 2204.95 687.247 2205.48C687.737 2206.01 688.327 2206.28 689.037 2206.28H697.407C698.117 2206.28 698.717 2206.01 699.197 2205.48C699.687 2204.95 699.927 2204.33 699.927 2203.62Z" fill="white"/>
<path d="M757.337 2183.55V2169.86H781.927V2201.49C781.927 2213.19 776.437 2219.03 765.447 2219.03H748.697C737.707 2219.03 732.217 2213.18 732.217 2201.49V2147.93C732.217 2136.23 737.707 2130.39 748.697 2130.39H765.447C776.437 2130.39 781.927 2136.24 781.927 2147.93V2156.04H764.247V2145.67C764.247 2144.96 764.007 2144.34 763.517 2143.81C763.027 2143.28 762.427 2143.01 761.727 2143.01H753.357C752.647 2143.01 752.047 2143.28 751.567 2143.81C751.077 2144.34 750.837 2144.96 750.837 2145.67V2203.62C750.837 2204.33 751.077 2204.95 751.567 2205.48C752.057 2206.01 752.647 2206.28 753.357 2206.28H761.727C762.437 2206.28 763.037 2206.01 763.517 2205.48C764.007 2204.95 764.247 2204.33 764.247 2203.62V2183.55H757.337Z" fill="white"/>
<path d="M810.766 2202.03H831.096V2217.71H792.156V2131.72H810.766V2202.03Z" fill="white"/>
<path d="M858.477 2202.29H879.077V2217.71H839.867V2131.72H879.077V2146.87H858.477V2167.07H877.747V2181.69H858.477V2202.29Z" fill="white"/>
<path d="M568.747 2423.55V2409.86H593.337V2441.49C593.337 2453.19 587.847 2459.03 576.857 2459.03H560.107C549.117 2459.03 543.627 2453.18 543.627 2441.49V2387.93C543.627 2376.23 549.117 2370.39 560.107 2370.39H576.857C587.847 2370.39 593.337 2376.24 593.337 2387.93V2396.04H575.657V2385.67C575.657 2384.96 575.417 2384.34 574.927 2383.81C574.437 2383.28 573.837 2383.01 573.137 2383.01H564.767C564.057 2383.01 563.457 2383.28 562.977 2383.81C562.487 2384.34 562.247 2384.96 562.247 2385.67V2443.62C562.247 2444.33 562.487 2444.95 562.977 2445.48C563.467 2446.01 564.057 2446.28 564.767 2446.28H573.137C573.847 2446.28 574.447 2446.01 574.927 2445.48C575.417 2444.95 575.657 2444.33 575.657 2443.62V2423.55H568.747Z" fill="white"/>
<path d="M634.268 2371.72H652.877V2441.5C652.877 2453.2 647.387 2459.04 636.397 2459.04H619.917C608.927 2459.04 603.438 2453.19 603.438 2441.5V2371.72H622.048V2443.09C622.048 2443.8 622.288 2444.42 622.778 2444.95C623.268 2445.48 623.857 2445.75 624.567 2445.75H631.748C632.458 2445.75 633.058 2445.48 633.538 2444.95C634.028 2444.42 634.268 2443.8 634.268 2443.09V2371.72Z" fill="white"/>
<path d="M684.237 2442.29H704.837V2457.71H665.627V2371.72H704.837V2386.87H684.237V2407.07H703.507V2421.69H684.237V2442.29Z" fill="white"/>
<path d="M763.317 2394.31H745.637V2387.53C745.637 2386.82 745.387 2386.2 744.907 2385.67C744.417 2385.14 743.817 2384.87 743.117 2384.87H735.808C735.098 2384.87 734.498 2385.14 734.018 2385.67C733.528 2386.2 733.288 2386.82 733.288 2387.53V2402.81C733.288 2403.52 733.528 2404.14 734.018 2404.67C734.508 2405.2 735.098 2405.47 735.808 2405.47H747.768C758.758 2405.65 764.248 2411.5 764.248 2423.01V2441.48C764.248 2453.18 758.758 2459.02 747.768 2459.02H732.087C721.097 2459.02 715.607 2453.17 715.607 2441.48V2432.58H733.288V2442.15C733.288 2442.86 733.528 2443.48 734.018 2444.01C734.508 2444.54 735.098 2444.81 735.808 2444.81H744.048C744.758 2444.81 745.357 2444.54 745.837 2444.01C746.327 2443.48 746.567 2442.86 746.567 2442.15V2425.27C746.567 2424.56 746.327 2423.94 745.837 2423.41C745.347 2422.88 744.748 2422.61 744.048 2422.61H732.087C721.097 2422.61 715.607 2416.76 715.607 2405.07V2387.93C715.607 2376.23 721.097 2370.39 732.087 2370.39H746.837C757.827 2370.39 763.317 2376.24 763.317 2387.93V2394.31Z" fill="white"/>
<path d="M771.557 2387.54V2371.72H818.077V2387.54H804.117V2457.71H785.507V2387.54H771.547H771.557Z" fill="white"/>
<path d="M573.908 2673.04V2660.48H590.622V2671.03C590.622 2682.09 585.432 2687.61 575.042 2687.61H559.207C548.817 2687.61 543.627 2682.08 543.627 2671.03V2620.4C543.627 2609.33 548.817 2603.81 559.207 2603.81H575.042C585.432 2603.81 590.622 2609.34 590.622 2620.4V2628.06H573.908V2618.26C573.908 2617.59 573.681 2617 573.218 2616.5C572.755 2616 572.187 2615.74 571.525 2615.74H563.612C562.941 2615.74 562.374 2616 561.92 2616.5C561.457 2617 561.23 2617.59 561.23 2618.26V2673.04C561.23 2673.72 561.457 2674.3 561.92 2674.8C562.383 2675.3 562.941 2675.56 563.612 2675.56H571.525C572.197 2675.56 572.764 2675.3 573.218 2674.8C573.681 2674.3 573.908 2673.72 573.908 2673.04Z" fill="white"/>
<path d="M618.768 2653.07V2686.37H601.174V2605.07H632.457C642.847 2605.07 648.037 2610.6 648.037 2621.65V2631.08C648.037 2637.78 645.645 2642.05 640.871 2643.9C645.059 2645.4 647.158 2648.84 647.158 2654.2V2686.37H629.564V2655.58C629.564 2653.91 628.77 2653.07 627.172 2653.07H618.758H618.768ZM618.768 2617.01V2640.76H628.07C628.742 2640.76 629.309 2640.5 629.762 2640C630.226 2639.5 630.453 2638.92 630.453 2638.24V2619.53C630.453 2618.86 630.226 2618.27 629.762 2617.77C629.299 2617.27 628.732 2617.01 628.07 2617.01H618.768Z" fill="white"/>
<path d="M676.938 2671.79H696.413V2686.37H659.344V2605.07H696.413V2619.39H676.938V2638.49H695.155V2652.31H676.938V2671.79Z" fill="white"/>
<path d="M738.879 2603.81C749.269 2603.81 754.459 2609.34 754.459 2620.4V2686.37H736.865V2659.1H724.178V2686.37H706.584V2620.4C706.584 2609.33 711.774 2603.81 722.164 2603.81H738.879ZM724.178 2645.52H736.865V2618.26C736.865 2617.59 736.638 2617 736.175 2616.5C735.712 2616 735.144 2615.74 734.483 2615.74H726.57C725.898 2615.74 725.331 2616 724.877 2616.5C724.414 2617 724.187 2617.59 724.187 2618.26V2645.52H724.178Z" fill="white"/>
<path d="M762.883 2620.03V2605.07H806.862V2620.03H793.665V2686.37H776.071V2620.03H762.873H762.883Z" fill="white"/>
<path d="M832.492 2671.79H851.967V2686.37H814.898V2605.07H851.967V2619.39H832.492V2638.49H850.71V2652.31H832.492V2671.79Z" fill="white"/>
<path d="M919.818 2603.81C930.208 2603.81 935.398 2609.34 935.398 2620.4V2686.37H917.804V2659.1H905.117V2686.37H887.523V2620.4C887.523 2609.33 892.714 2603.81 903.103 2603.81H919.818ZM905.117 2645.52H917.804V2618.26C917.804 2617.59 917.578 2617 917.114 2616.5C916.651 2616 916.084 2615.74 915.422 2615.74H907.509C906.838 2615.74 906.27 2616 905.817 2616.5C905.353 2617 905.127 2617.59 905.127 2618.26V2645.52H905.117Z" fill="white"/>
<path d="M978.744 2673.04V2660.48H995.458V2671.03C995.458 2682.09 990.268 2687.61 979.878 2687.61H964.043C953.653 2687.61 948.463 2682.08 948.463 2671.03V2620.4C948.463 2609.33 953.653 2603.81 964.043 2603.81H979.878C990.268 2603.81 995.458 2609.34 995.458 2620.4V2628.06H978.744V2618.26C978.744 2617.59 978.517 2617 978.054 2616.5C977.59 2616 977.023 2615.74 976.361 2615.74H968.448C967.777 2615.74 967.21 2616 966.756 2616.5C966.293 2617 966.066 2617.59 966.066 2618.26V2673.04C966.066 2673.72 966.293 2674.3 966.756 2674.8C967.22 2675.3 967.777 2675.56 968.448 2675.56H976.361C977.033 2675.56 977.6 2675.3 978.054 2674.8C978.517 2674.3 978.744 2673.72 978.744 2673.04Z" fill="white"/>
<path d="M1036.29 2673.04V2660.48H1053.01V2671.03C1053.01 2682.09 1047.82 2687.61 1037.43 2687.61H1021.59C1011.2 2687.61 1006.01 2682.08 1006.01 2671.03V2620.4C1006.01 2609.33 1011.2 2603.81 1021.59 2603.81H1037.43C1047.82 2603.81 1053.01 2609.34 1053.01 2620.4V2628.06H1036.29V2618.26C1036.29 2617.59 1036.06 2617 1035.6 2616.5C1035.14 2616 1034.57 2615.74 1033.91 2615.74H1026C1025.32 2615.74 1024.76 2616 1024.3 2616.5C1023.84 2617 1023.61 2617.59 1023.61 2618.26V2673.04C1023.61 2673.72 1023.84 2674.3 1024.3 2674.8C1024.77 2675.3 1025.32 2675.56 1026 2675.56H1033.91C1034.58 2675.56 1035.15 2675.3 1035.6 2674.8C1036.06 2674.3 1036.29 2673.72 1036.29 2673.04Z" fill="white"/>
<path d="M1111.43 2620.4V2671.03C1111.43 2682.09 1106.24 2687.61 1095.85 2687.61H1079.13C1068.74 2687.61 1063.55 2682.08 1063.55 2671.03V2620.4C1063.55 2609.33 1068.74 2603.81 1079.13 2603.81H1095.85C1106.24 2603.81 1111.43 2609.34 1111.43 2620.4ZM1093.84 2673.04V2618.26C1093.84 2617.59 1093.61 2617 1093.15 2616.5C1092.68 2616 1092.12 2615.74 1091.45 2615.74H1083.54C1082.87 2615.74 1082.3 2616 1081.85 2616.5C1081.38 2617 1081.16 2617.59 1081.16 2618.26V2673.04C1081.16 2673.72 1081.38 2674.3 1081.85 2674.8C1082.31 2675.3 1082.87 2675.56 1083.54 2675.56H1091.45C1092.12 2675.56 1092.69 2675.3 1093.15 2674.8C1093.61 2674.3 1093.84 2673.72 1093.84 2673.04Z" fill="white"/>
<path d="M1153.4 2605.07H1170.99V2671.04C1170.99 2682.1 1165.8 2687.62 1155.41 2687.62H1139.83C1129.44 2687.62 1124.25 2682.09 1124.25 2671.04V2605.07H1141.84V2672.54C1141.84 2673.22 1142.07 2673.8 1142.53 2674.3C1143 2674.8 1143.56 2675.06 1144.23 2675.06H1151.01C1151.69 2675.06 1152.25 2674.8 1152.71 2674.3C1153.17 2673.8 1153.4 2673.22 1153.4 2672.54V2605.07Z" fill="white"/>
<path d="M1229.66 2686.37H1212.07V2618.89C1212.07 2618.22 1211.83 2617.64 1211.38 2617.13C1210.91 2616.63 1210.35 2616.38 1209.68 2616.38H1202.9C1202.22 2616.38 1201.66 2616.63 1201.2 2617.13C1200.74 2617.64 1200.51 2618.22 1200.51 2618.89V2686.37H1182.92V2620.4C1182.92 2609.33 1188.11 2603.81 1198.5 2603.81H1214.08C1224.47 2603.81 1229.66 2609.34 1229.66 2620.4V2686.37Z" fill="white"/>
<path d="M1236.82 2620.03V2605.07H1280.8V2620.03H1267.6V2686.37H1250.01V2620.03H1236.81H1236.82Z" fill="white"/>
<path d="M583.219 903.995C582.053 905.198 580.161 905.273 578.91 904.192L578.791 904.084L516.059 844.129C514.815 842.938 514.787 840.994 515.96 839.774L516.077 839.659L578.853 780.825C580.116 779.644 582.097 779.705 583.285 780.952L598.736 797.226C599.915 798.472 599.856 800.416 598.607 801.59L598.608 801.591L579.774 819.247L576.107 822.686L581.135 822.706L734.827 823.331L734.989 823.336C736.646 823.426 737.939 824.794 737.928 826.448L737.607 859.676C737.587 861.359 736.191 862.743 734.457 862.736L581.361 862.111L576.346 862.091L579.971 865.557L598.749 883.511L598.75 883.512C599.993 884.701 600.031 886.643 598.839 887.874L598.838 887.874L586.655 900.458L586.655 900.447L583.219 903.995Z" stroke="#61D4FF" stroke-width="4"/>
<path d="M583.219 723.696C582.053 724.9 580.161 724.974 578.91 723.894L578.791 723.785L516.059 663.83C514.815 662.639 514.787 660.695 515.96 659.476L516.077 659.36L578.853 600.526C580.116 599.345 582.097 599.406 583.285 600.653L598.736 616.927C599.915 618.173 599.856 620.117 598.607 621.291L598.608 621.292L579.774 638.948L576.107 642.387L581.135 642.407L734.827 643.032L734.989 643.037C736.646 643.127 737.939 644.495 737.928 646.149L737.607 679.377C737.587 681.061 736.191 682.444 734.457 682.437L581.361 681.812L576.346 681.792L579.971 685.258L598.749 703.212L598.75 703.213C599.993 704.402 600.031 706.344 598.839 707.575L598.838 707.575L586.655 720.159L586.655 720.148L583.219 723.696Z" stroke="white" stroke-width="4"/>
<path d="M1107.3 903.995C1108.47 905.198 1110.36 905.273 1111.61 904.192L1111.73 904.084L1174.46 844.129C1175.71 842.938 1175.74 840.994 1174.56 839.774L1174.45 839.659L1111.67 780.825C1110.41 779.644 1108.43 779.705 1107.24 780.952L1091.79 797.226C1090.61 798.472 1090.67 800.416 1091.92 801.59L1091.92 801.591L1110.75 819.247L1114.42 822.686L1109.39 822.706L955.696 823.331L955.534 823.336C953.877 823.426 952.585 824.794 952.596 826.448L952.916 859.676C952.936 861.359 954.332 862.743 956.066 862.736L1109.16 862.111L1114.18 862.091L1110.55 865.557L1091.77 883.511L1091.77 883.512C1090.53 884.701 1090.49 886.643 1091.68 887.874L1091.69 887.874L1103.87 900.458L1103.87 900.447L1107.3 903.995Z" stroke="#61D4FF" stroke-width="4"/>
<path d="M1107.3 723.696C1108.47 724.9 1110.36 724.974 1111.61 723.894L1111.73 723.785L1174.46 663.83C1175.71 662.639 1175.74 660.695 1174.56 659.476L1174.45 659.36L1111.67 600.526C1110.41 599.345 1108.43 599.406 1107.24 600.653L1091.79 616.927C1090.61 618.173 1090.67 620.117 1091.92 621.291L1091.92 621.292L1110.75 638.948L1114.42 642.387L1109.39 642.407L955.696 643.032L955.534 643.037C953.877 643.127 952.585 644.495 952.596 646.149L952.916 679.377C952.936 681.061 954.332 682.444 956.066 682.437L1109.16 681.812L1114.18 681.792L1110.55 685.258L1091.77 703.212L1091.77 703.213C1090.53 704.402 1090.49 706.344 1091.68 707.575L1091.69 707.575L1103.87 720.159L1103.87 720.148L1107.3 723.696Z" stroke="white" stroke-width="4"/>
<rect x="940.506" y="1142.63" width="247" height="148.879" rx="3.5" stroke="#45D1FF" stroke-width="3"/>
<rect x="940.006" y="1365.55" width="248" height="171.206" rx="4" fill="white" stroke="black" stroke-width="2"/>
<rect x="1245.5" y="1365.55" width="248" height="171.206" rx="4" fill="#45D1FF" stroke="black" stroke-width="2"/>
<path d="M3816.58 1415.44C3815.78 1415.44 3815.08 1415.74 3814.48 1416.34C3813.98 1416.94 3813.73 1417.64 3813.73 1418.44V1426.69H3796.18V1418.14C3796.18 1404.94 3802.38 1398.34 3814.78 1398.34H3815.53C3816.33 1398.34 3816.98 1398.04 3817.48 1397.44C3818.08 1396.84 3818.38 1396.14 3818.38 1395.34V1377.49C3818.38 1376.69 3818.08 1375.99 3817.48 1375.39C3816.98 1374.79 3816.33 1374.49 3815.53 1374.49H3804.13C3803.33 1374.49 3802.63 1374.79 3802.03 1375.39C3801.53 1375.99 3801.28 1376.69 3801.28 1377.49V1385.14H3782.68V1377.94C3782.68 1364.74 3788.88 1358.14 3801.28 1358.14H3817.93C3830.33 1358.14 3836.53 1364.74 3836.53 1377.94V1395.64C3836.53 1408.84 3830.33 1415.44 3817.93 1415.44H3816.58ZM3794.53 1445.89C3794.53 1442.89 3795.58 1440.34 3797.68 1438.24C3799.78 1436.14 3802.33 1435.09 3805.33 1435.09C3808.33 1435.09 3810.88 1436.14 3812.98 1438.24C3815.08 1440.34 3816.13 1442.89 3816.13 1445.89C3816.13 1448.89 3815.08 1451.44 3812.98 1453.54C3810.88 1455.64 3808.33 1456.69 3805.33 1456.69C3802.33 1456.69 3799.78 1455.64 3797.68 1453.54C3795.58 1451.44 3794.53 1448.89 3794.53 1445.89Z" fill="#45D1FF"/>
<path d="M3893.08 1405.55C3893.08 1452.78 3854.79 1491.07 3807.56 1491.07C3783.82 1491.07 3762.33 1481.39 3746.84 1465.77M3722.04 1405.55C3722.04 1358.32 3760.33 1320.03 3807.56 1320.03C3832.4 1320.03 3854.77 1330.62 3870.39 1347.53" stroke="white" stroke-width="3"/>
<path d="M3880.08 1336.78L3883.02 1362.16L3867.56 1346.91L3880.08 1336.78Z" fill="white"/>
<path d="M3738.78 1478.43L3731.25 1450.35L3750.11 1466.56L3738.78 1478.43Z" fill="white"/>
<circle cx="3808.11" cy="1405.55" r="68.7275" stroke="#45D1FF" stroke-width="3"/>
<rect x="4567.15" y="640.682" width="197" height="197" rx="18.5" fill="#3A109F" stroke="#61D4FF" stroke-width="3"/>
<rect x="5257.13" y="674.641" width="244.043" height="208.27" stroke="#61D4FF" stroke-width="3"/>
<rect x="5266.27" y="683.481" width="225.76" height="190.588" fill="#3A109F"/>
<circle cx="5378.18" cy="720.739" r="16.1489" fill="white"/>
<ellipse cx="5378.18" cy="756.267" rx="28.9736" ry="15.7769" fill="white"/>
<ellipse cx="5378.18" cy="766.173" rx="13.2881" ry="15.7769" fill="white"/>
<ellipse cx="5378.18" cy="794.678" rx="6.61453" ry="6.65353" fill="white"/>
<ellipse cx="5346.36" cy="781.95" rx="5.9043" ry="19.8735" fill="white"/>
<ellipse cx="5395.8" cy="833.966" rx="9.11572" ry="29.9476" transform="rotate(-6.47696 5395.8 833.966)" fill="white"/>
<ellipse cx="5362.13" cy="833.965" rx="9.11572" ry="29.9476" transform="rotate(5.27853 5362.13 833.965)" fill="white"/>
<ellipse cx="5411.94" cy="778.983" rx="5.9043" ry="19.8735" fill="white"/>
<rect x="5258.02" y="942.672" width="120.162" height="98.9102" fill="black" fill-opacity="0.5" stroke="#61D4FF" stroke-width="5"/>
<rect x="5261.94" y="1088.79" width="116.238" height="74.3672" fill="#5CD1FF"/>
<path d="M4448.91 1081.68C4448.91 1110.2 4430.52 1134.42 4404.95 1143.14V1167.83C4404.95 1167.83 4387.27 1167.83 4383.32 1167.83C4379.38 1167.83 4365.35 1167.83 4365.35 1167.83L4363.01 1143.14C4337.44 1134.42 4319.05 1110.2 4319.05 1081.68C4319.05 1045.82 4348.12 1016.75 4383.98 1016.75C4419.84 1016.75 4448.91 1045.82 4448.91 1081.68Z" stroke="#45D1FF" stroke-width="10"/>
<circle cx="4383.98" cy="1081.68" r="88.5689" stroke="#45D1FF" stroke-width="3" stroke-linecap="round" stroke-dasharray="11 11"/>
<rect x="4358.35" y="1179.3" width="52.3525" height="10.2516" fill="#45D1FF"/>
<path d="M4358.35 1193.98H4410.7V1193.98C4410.7 1203.84 4402.71 1211.84 4392.84 1211.84H4376.21C4366.34 1211.84 4358.35 1203.84 4358.35 1193.98V1193.98Z" fill="#45D1FF"/>
<circle cx="4385.21" cy="1081.44" r="31.3805" stroke="white" stroke-width="5"/>
<path d="M4042.21 1327.19C4052.13 1327.19 4057.09 1332.47 4057.09 1343.03V1406.03H4040.29V1379.99H4028.17V1406.03H4011.37V1343.03C4011.37 1332.47 4016.33 1327.19 4026.25 1327.19H4042.21ZM4028.17 1367.03H4040.29V1340.99C4040.29 1340.35 4040.05 1339.79 4039.57 1339.31C4039.17 1338.83 4038.65 1338.59 4038.01 1338.59H4030.45C4029.81 1338.59 4029.25 1338.83 4028.77 1339.31C4028.37 1339.79 4028.17 1340.35 4028.17 1340.99V1367.03ZM4111.14 1363.55C4116.34 1365.39 4118.94 1369.63 4118.94 1376.27V1390.19C4118.94 1400.75 4113.98 1406.03 4104.06 1406.03H4073.22V1328.39H4103.1C4113.02 1328.39 4117.98 1333.67 4117.98 1344.23V1351.31C4117.98 1357.71 4115.7 1361.79 4111.14 1363.55ZM4098.9 1339.79H4090.02V1360.55H4098.9C4099.54 1360.55 4100.06 1360.31 4100.46 1359.83C4100.94 1359.35 4101.18 1358.79 4101.18 1358.15V1342.19C4101.18 1341.55 4100.94 1340.99 4100.46 1340.51C4100.06 1340.03 4099.54 1339.79 4098.9 1339.79ZM4102.14 1392.11V1374.71C4102.14 1374.07 4101.9 1373.51 4101.42 1373.03C4101.02 1372.55 4100.5 1372.31 4099.86 1372.31H4090.02V1394.51H4099.86C4100.5 1394.51 4101.02 1394.27 4101.42 1393.79C4101.9 1393.31 4102.14 1392.75 4102.14 1392.11ZM4041.41 1489.31V1477.31H4057.37V1487.39C4057.37 1497.95 4052.41 1503.23 4042.49 1503.23H4027.37C4017.45 1503.23 4012.49 1497.95 4012.49 1487.39V1439.03C4012.49 1428.47 4017.45 1423.19 4027.37 1423.19H4042.49C4052.41 1423.19 4057.37 1428.47 4057.37 1439.03V1446.35H4041.41V1436.99C4041.41 1436.35 4041.17 1435.79 4040.69 1435.31C4040.29 1434.83 4039.77 1434.59 4039.13 1434.59H4031.57C4030.93 1434.59 4030.37 1434.83 4029.89 1435.31C4029.49 1435.79 4029.29 1436.35 4029.29 1436.99V1489.31C4029.29 1489.95 4029.49 1490.51 4029.89 1490.99C4030.37 1491.47 4030.93 1491.71 4031.57 1491.71H4039.13C4039.77 1491.71 4040.29 1491.47 4040.69 1490.99C4041.17 1490.51 4041.41 1489.95 4041.41 1489.31Z" fill="white"/>
<path d="M4101.89 1424.39C4111.81 1424.39 4116.77 1429.67 4116.77 1440.23V1486.19C4116.77 1496.75 4111.81 1502.03 4101.89 1502.03H4071.05V1424.39H4101.89ZM4099.97 1488.11V1438.19C4099.97 1437.55 4099.73 1436.99 4099.25 1436.51C4098.85 1436.03 4098.33 1435.79 4097.69 1435.79H4087.85V1490.51H4097.69C4098.33 1490.51 4098.85 1490.27 4099.25 1489.79C4099.73 1489.31 4099.97 1488.75 4099.97 1488.11Z" fill="#45D1FF"/>
<rect x="1.5" y="-1.5" width="372.392" height="389.42" rx="8.5" transform="matrix(1 0 0 -1 4448.91 1684.28)" fill="#140C52" stroke="#61D4FF" stroke-width="3"/>
</svg>
